<?xml version="1.0" encoding="UTF-8" standalone="no"?>
<svg
   width="210mm"
   height="297mm"
   viewBox="0 0 210 297"
   version="1.1"
   id="svg8"
   inkscape:version="1.1.2 (b8e25be8, 2022-02-05)"
   sodipodi:docname="vector-logo.svg"
   xmlns:inkscape="http://www.inkscape.org/namespaces/inkscape"
   xmlns:sodipodi="http://sodipodi.sourceforge.net/DTD/sodipodi-0.dtd"
   xmlns="http://www.w3.org/2000/svg"
   xmlns:svg="http://www.w3.org/2000/svg"
   xmlns:rdf="http://www.w3.org/1999/02/22-rdf-syntax-ns#"
   xmlns:cc="http://creativecommons.org/ns#"
   xmlns:dc="http://purl.org/dc/elements/1.1/">
  <defs
     id="defs2" />
  <sodipodi:namedview
     id="base"
     pagecolor="#ffffff"
     bordercolor="#666666"
     borderopacity="1.0"
     inkscape:pageopacity="0.0"
     inkscape:pageshadow="2"
     inkscape:zoom="0.54043248"
     inkscape:cx="-1.8503699"
     inkscape:cy="744.77388"
     inkscape:document-units="mm"
     inkscape:current-layer="layer1"
     inkscape:document-rotation="0"
     showgrid="false"
     inkscape:window-width="1600"
     inkscape:window-height="907"
     inkscape:window-x="0"
     inkscape:window-y="824"
     inkscape:window-maximized="0"
     inkscape:pagecheckerboard="0" />
  <metadata
     id="metadata5">
    <rdf:RDF>
      <cc:Work
         rdf:about="">
        <dc:format>image/svg+xml</dc:format>
        <dc:type
           rdf:resource="http://purl.org/dc/dcmitype/StillImage" />
        <dc:title />
      </cc:Work>
    </rdf:RDF>
  </metadata>
  <g
     inkscape:label="Layer 1"
     inkscape:groupmode="layer"
     id="layer1">
    <path
       sodipodi:nodetypes="cccscsssccscssccccccccssccccscccscccssscc"
       inkscape:connector-curvature="0"
       d="m -57.947075,243.69596 c -0.6048,0.0215 -0.98975,0.23183 -1.86862,0.86041 -2.71048,1.93859 -3.87616,2.34373 -6.65799,2.31562 -2.6766,-0.027 -5.504928,-0.47006 -9.696568,-1.51929 -1.42801,-0.35745 -3.80926,-0.82938 -5.29167,-1.04903 -3.86736,-0.57302 -13.09912,-0.7874 -16.98294,-0.39429 -18.443857,1.86683 -32.364337,11.78419 -37.677797,26.8428 -2.06871,5.86281 -2.96511,14.66612 -2.0345,19.97965 1.5031,8.5823 6.76276,16.63547 15.23834,23.33088 9.75916,7.7094 17.27828,10.89054 26.855207,11.36209 7.26169,0.35758 15.46006,0.12698 18.45314,-0.51883 13.043798,-2.81444 22.409388,-11.77916 24.670328,-23.61406 0.6177,-3.23337 0.55862,-9.03829 -0.11937,-11.68921 -1.46255,-5.7185 -4.83439,-10.45184 -10.40298,-14.60479 -5.16871,-3.85471 -10.864048,-6.10647 -17.032558,-6.73394 -4.48875,-0.4566 -8.31067,0.17191 -12.22199,2.00917 -9.875777,5.7552 -16.763247,14.5914 -13.284457,26.02373 1.66326,5.04847 4.25161,8.02188 7.935427,9.11572 2.65213,0.78748 5.18528,0.35755 5.7459,-0.97513 0.19605,-0.46606 0.26416,-2.24487 0.11989,-3.13004 -0.0149,-0.0915 -0.38248,-0.31353 -0.817,-0.49352 -1.20621,-0.49961 -3.52762,-2.89171 -4.19303,-4.32066 -3.545467,-7.61382 1.65729,-17.75889 9.87795,-19.26136 6.02513,-1.1012 12.31059,2.41933 15.35049,8.59741 1.62543,3.30342 2.01505,6.49363 1.43144,11.72745 -1.18535,10.63029 -5.92241,17.70185 -13.29945,19.85305 -2.31092,0.67387 -5.6841,0.8335 -9.8857,0.46819 -2.56322,-0.22284 -8.398767,-1.77506 -10.565767,-2.81068 -6.61033,-3.15915 -13.03991,-15.10983 -13.50667,-25.10493 -0.33722,-7.2214 1.85002,-17.92446 4.94957,-24.22021 2.61237,-5.30622 7.48175,-10.06385 13.355257,-13.04882 3.15003,-1.60088 5.10615,-1.97907 9.26041,-1.79111 13.03092,0.5896 21.468178,5.3182 25.549348,14.31903 0.97287,2.14562 1.99141,5.87136 2.24017,8.19432 0.10546,0.98471 0.31526,1.74031 0.48576,1.75131 1.32615,0.0856 4.32666,-0.10282 4.68396,-0.29404 0.38339,-0.20518 0.46087,-0.93741 0.57981,-5.47097 0.0971,-3.70269 0.33827,-6.5505 0.82372,-9.73222 1.43789,-9.42421 2.01744,-13.41978 2.01744,-13.90768 0,-0.74986 -1.89962,-1.89219 -3.38015,-2.03295 -0.27687,-0.0263 -0.50275,-0.0402 -0.70435,-0.0331 z"
       style="fill:#808000;stroke-width:0.264583"
       id="path939-72-9" />
    <path
       style="fill:#000000;stroke-width:0.264583"
       d="m 152.55776,128.02723 c -6.80448,-1.5854 -11.90354,-5.5805 -14.62663,-11.45988 -1.34451,-2.90292 -1.88212,-5.07766 -2.04254,-8.26258 -0.45896,-9.112035 5.49915,-18.104779 17.32759,-26.153044 l 2.19852,-1.495912 h -12.98859 c -11.88185,0 -13.00302,-0.0376 -13.15792,-0.441246 -0.16726,-0.435866 1.49287,-3.859225 3.15045,-6.496555 0.85649,-1.362736 2.16241,-2.323991 3.15213,-2.320203 0.34992,0.0013 1.68932,0.761776 3.01148,1.709754 2.93608,2.105157 4.54115,2.721366 7.93749,3.04733 1.4552,0.139663 10.70529,0.257006 20.55573,0.26076 12.94407,0.0049 17.96077,0.08912 18.09334,0.303631 0.10089,0.16324 -0.21274,1.11574 -0.69695,2.116667 l -0.8804,1.819862 h -8.6303 c -7.72276,0 -8.83726,0.05449 -10.59836,0.518147 -3.69854,0.97374 -6.33387,2.594996 -9.65003,5.936691 -3.82012,3.849539 -6.63753,8.304903 -7.80636,12.344723 -0.8049,2.781955 -1.00499,8.098105 -0.41261,10.962525 1.34185,6.4885 6.18951,11.36858 12.65728,12.74192 2.42491,0.51489 6.4873,0.34874 9.06449,-0.37075 2.17157,-0.60624 6.40248,-2.34849 8.50433,-3.502 1.13485,-0.62281 1.56098,-0.74159 1.83743,-0.51216 0.4508,0.37413 0.0692,1.19337 -1.35684,2.91311 -2.36286,2.84946 -5.73175,4.89575 -9.84781,5.98166 -2.23975,0.59089 -3.23407,0.69168 -7.60378,0.77077 -4.2343,0.0766 -5.36836,0.0115 -7.19114,-0.41322 z M 46.242663,127.72833 C 36.43979,126.72098 26.36139,121.1677 17.380227,111.82488 10.597567,104.76909 6.523184,97.524245 4.457533,88.84644 3.1983737,83.556708 2.8491627,80.40619 2.8751457,74.570397 2.9065157,67.523459 3.7915467,62.457275 6.055194,56.36676 8.911795,48.680861 12.987588,42.245557 18.321391,36.999565 c 7.155127,-7.03733 15.548006,-11.121267 26.99523,-13.135756 5.219012,-0.918444 13.288931,-1.161129 16.801042,-0.505253 6.913536,1.291082 15.364476,4.902573 22.489586,9.610877 4.94114,3.265132 11.033842,9.507591 10.538742,10.797791 -0.0818,0.213237 -0.49976,0.376091 -0.96516,0.376091 -0.692782,0 -1.180392,-0.381759 -3.125252,-2.446793 -1.26742,-1.345737 -2.36571,-2.385479 -2.44066,-2.310539 -0.0749,0.07494 0.51073,0.938008 1.30148,1.917927 1.64832,2.042652 1.84016,2.839405 0.68367,2.839405 -0.72354,0 -2.65343,-1.174913 -3.12214,-1.900753 -0.15077,-0.233487 -0.26844,4.7e-4 -0.35714,0.710128 l -0.13229,1.058333 -1.91032,0.07758 c -1.80917,0.07347 -1.91662,0.04545 -2.02936,-0.529168 -1.42221,-7.24906 -3.86883,-10.510241 -8.99502,-11.989772 -2.42238,-0.699152 -6.19183,-0.457844 -8.099678,0.518515 -1.814359,0.928513 -4.817777,3.9791 -6.159714,6.256456 -1.993858,3.383712 -2.22495,5.936596 -0.882354,9.747411 0.380638,1.080394 0.692068,2.100299 0.692068,2.266452 0,0.484511 -3.214124,2.251506 -4.095022,2.251276 -1.161479,-2.64e-4 -3.531204,-1.210225 -7.191531,-3.671818 -4.090509,-2.750894 -6.652374,-5.104013 -7.479578,-6.870131 -0.580943,-1.240335 -0.600496,-1.415853 -0.257807,-2.314241 0.518932,-1.360419 1.812364,-2.034298 3.479667,-1.812907 1.21533,0.161377 1.256771,0.144557 1.256771,-0.510098 0,-0.847328 -0.665398,-1.222441 -2.505276,-1.412333 -5.260461,-0.542928 -14.164582,4.939115 -24.88364,15.320232 -1.907423,1.847289 -4.353585,4.436803 -5.435916,5.754476 -1.082332,1.317675 -2.027407,2.394045 -2.100167,2.391933 -0.07276,-0.0021 -0.30753,-0.114662 -0.521711,-0.250113 -0.333031,-0.210614 -0.340354,-0.430316 -0.05057,-1.517303 1.043156,-3.912947 5.460716,-8.989137 12.783281,-14.689186 5.766285,-4.488604 11.122171,-7.60982 15.915267,-9.274835 2.304331,-0.800475 2.638952,-0.845467 6.322171,-0.850067 2.267728,-0.0028 4.000402,0.106353 4.156133,0.261901 0.174088,0.173881 0.184696,0.849574 0.03047,1.940687 -0.285901,2.022647 -0.196241,2.304633 0.848577,2.668858 2.49242,0.868863 4.559467,-0.693832 4.518403,-3.41593 -0.06148,-4.075105 -4.805957,-6.937752 -10.775801,-6.501725 -6.774746,0.494817 -12.922115,3.388382 -19.735692,9.289589 -8.004953,6.933051 -13.916362,15.209384 -16.364027,22.91063 -0.844855,2.658218 -1.96483,8.678132 -2.40367,12.919823 -0.205978,1.990924 -0.183045,2.59751 0.119228,3.153606 0.365305,0.672057 0.374614,0.656876 0.389,-0.634381 0.02274,-2.041403 0.957434,-6.022678 1.953668,-8.321564 1.742807,-4.021664 4.387405,-7.179209 7.973851,-9.520467 4.802459,-3.135077 10.628426,-4.606568 20.99008,-5.301551 7.575762,-0.508125 10.693122,-0.302176 15.589369,1.029922 1.93353,0.526047 1.588286,1.10885 -2.363438,3.989702 -4.414962,3.218558 -9.331161,8.008197 -10.45563,10.186458 -1.10341,2.137476 -1.627266,3.778015 -1.952061,6.113206 -0.289407,2.080747 -0.26017,2.393479 0.912548,9.761794 0.707877,4.447675 0.958995,6.921513 0.758727,7.474479 -0.224893,0.620958 -0.988348,0.328374 -1.640181,-0.628579 -0.358034,-0.525629 -0.693738,-0.827394 -0.746006,-0.670586 -0.161973,0.485915 1.720511,5.655041 2.814833,7.729261 0.571757,1.08373 2.657316,4.526055 4.634582,7.649615 l 3.595026,5.67919 -0.722691,0.75544 c -0.397478,0.41549 -1.675188,1.37988 -2.839355,2.14309 -1.717926,1.12624 -2.478156,1.45129 -4.035583,1.72546 -1.055405,0.18579 -1.856875,0.43819 -1.781043,0.56089 0.193066,0.31239 3.880218,1.70815 6.576332,2.48945 1.242679,0.36011 4.318553,1.08437 6.835272,1.60946 7.644646,1.59498 11.961884,2.91562 14.615938,4.471 1.85389,1.08644 1.47978,1.54917 -1.928675,2.38553 -1.550858,0.38056 -3.71271,0.80449 -4.804116,0.94208 -2.363197,0.29792 -10.378977,0.28509 -13.361458,-0.0214 z m 13.229166,-2.47214 c 0.145521,-0.0597 -0.335253,-0.11801 -1.06839,-0.12949 -6.668029,-0.1045 -17.691256,-2.91915 -22.205439,-5.66991 -4.411623,-2.68826 -10.491338,-8.68155 -11.671142,-11.50522 -0.90216,-2.15916 -0.725292,-4.0315 0.450177,-4.76558 0.472178,-0.29489 0.679266,-0.25444 1.513615,0.29557 1.997799,1.31695 2.094634,1.33798 2.82045,0.61217 0.531482,-0.53149 0.659688,-0.92309 0.659688,-2.01499 0,-1.13533 -0.121645,-1.47694 -0.749527,-2.104825 -1.09995,-1.09995 -2.662652,-1.49692 -4.431888,-1.12582 -2.854266,0.59869 -3.876859,2.091735 -4.030536,5.884805 -0.08346,2.05988 0.0016,2.82393 0.470987,4.23332 1.731183,5.19755 6.658707,9.3453 15.487839,13.03691 4.025395,1.68309 7.250496,2.50325 11.244791,2.85962 1.67349,0.14931 4.173803,0.41512 5.55625,0.5907 2.205019,0.28005 5.017368,0.18686 5.953125,-0.19726 z M 41.671674,110.03901 c 1.415015,-0.33911 2.526919,-0.68945 2.47089,-0.77853 -0.05603,-0.0891 -1.578543,-2.37395 -3.383372,-5.07748 l -3.281505,-4.915525 -0.302451,4.386355 c -0.266785,3.86908 -0.509222,5.37533 -1.226291,7.61889 l -0.187515,0.5867 1.66874,-0.60192 c 0.917808,-0.33105 2.826486,-0.87937 4.241504,-1.21849 z m -24.399752,-4.37666 c -0.895415,-2.69072 -3.916033,-8.531685 -7.52272,-14.54666 -1.829482,-3.051077 -3.32633,-5.66053 -3.32633,-5.798783 0,-0.138256 -0.06695,-0.184423 -0.148772,-0.1026 -0.244168,0.244168 0.861082,4.505483 1.887419,7.276988 1.937759,5.23268 5.373825,11.344645 8.425369,14.986755 1.057242,1.26184 1.082618,1.2746 1.165394,0.58599 0.04654,-0.38716 -0.169622,-1.46792 -0.48036,-2.40169 z M 9.442,85.364875 c 0.221711,0.261993 1.449449,1.386345 1.782386,1.708618 2.497738,2.417737 5.237709,3.430191 8.824527,3.260776 1.164167,-0.05499 2.71013,-0.304798 3.435474,-0.555136 v -1.5e-5 c 3.225548,-1.113237 6.443959,-3.992909 7.908391,-7.07603 1.018519,-2.144326 1.294381,-3.450539 1.270254,-6.014661 -0.04291,-4.560618 -3.453244,-8.898766 -8.645369,-10.997433 -1.61105,-0.65119 -2.213632,-0.75052 -4.630208,-0.763251 -2.511028,-0.01323 -2.920474,0.05527 -4.258721,0.712486 -1.531547,0.752144 -3.688228,2.746623 -4.897976,4.5296 -1.052177,1.550744 -2.426972,4.610065 -2.422861,5.901115 l -0.169515,1.189217 c -0.05398,0.422715 -0.0799,0.843394 -0.0815,1.146695 0,0 -0.03203,0.991727 0.05447,1.633584 0.13454,1.13567 0.497524,2.120547 0.713682,2.770847 0.216158,0.6503 0.617683,1.795501 1.11697,2.553588 z M 9.091826,84.019848 C 8.714214,83.349183 8.207118,81.750241 8.017302,80.920409 7.827485,80.090578 7.826114,79.815339 7.805776,79.105524 c -0.01998,-1.209647 0.14828,-2.410227 0.284552,-3.609085 0.517305,-3.375359 3.729168,-6.77985 6.835918,-8.304416 3.102607,-1.522532 7.07195,-1.532647 10.026107,-0.02553 2.439578,1.244579 4.684039,4.20538 5.449127,7.188266 1.349427,5.261088 -1.877553,12.21302 -6.698945,14.431642 -1.374591,0.632534 -1.811291,0.701331 -4.133845,0.651229 C 15.43213,89.3484 12.190593,87.690208 10.995837,86.688403 9.801081,85.686598 9.469438,84.690513 9.091826,84.019848 Z m 14.370301,2.085358 c 1.973106,-1.163603 3.446713,-3.176801 4.409317,-6.023879 0.701302,-2.07423 0.568677,-3.652078 -0.469003,-5.579719 -1.642185,-3.0506 -4.25064,-4.693711 -7.451311,-4.693711 -4.616743,0 -6.943901,2.039631 -7.355434,6.44665 -0.139613,1.495078 -0.07113,1.845281 0.658169,3.365717 0.918133,1.914112 2.412083,3.586882 3.677698,4.117906 1.133208,0.475469 3.354056,0.453644 4.313273,-0.04239 1.439232,-0.744255 1.739991,-2.341478 0.722308,-3.835914 -0.900653,-1.32258 -1.31353,-1.492966 -2.634546,-1.087231 -2.253279,0.692074 -3.186259,0.673421 -3.891954,-0.07781 -1.258542,-1.339744 -0.981922,-4.684733 0.548287,-6.630079 0.858787,-1.091769 2.380631,-1.72769 4.134603,-1.72769 4.283421,0 7.061657,2.639502 7.393262,7.024071 0.133336,1.763006 0.07626,2.07083 -0.68594,3.699618 -1.226069,2.62005 -2.503239,4.224351 -3.902036,4.901499 -1.039167,0.50305 -1.465847,0.559446 -3.100774,0.40984 -1.042689,-0.09541 -2.580407,-0.333418 -3.417151,-0.528895 -0.836745,-0.195476 -1.521355,-0.306035 -1.521355,-0.245684 0,0.06035 0.565547,0.372142 1.256771,0.692867 1.058549,0.491168 1.649055,0.572998 3.743942,0.518827 2.083116,-0.05387 2.663389,-0.168235 3.571875,-0.704001 z m 0.88871,-9.996511 c -1.283602,-2.788663 -3.2598,-3.888184 -5.389209,-2.998462 -1.588671,0.66379 -2.220006,1.393127 -2.220006,2.564617 0,0.914249 0.06672,1.012214 0.68941,1.012214 0.379175,0 1.057198,-0.309473 1.506717,-0.687718 1.067111,-0.897917 1.951959,-0.75619 4.150476,0.664781 0.922171,0.596027 1.729125,1.031238 1.793231,0.967132 0.0641,-0.06411 -0.174674,-0.749261 -0.530619,-1.522564 z m 10.933695,-5.038804 c 1.368856,-5.429083 5.0307,-10.661626 9.151101,-13.076343 1.168823,-0.684974 1.19344,-0.723971 0.596445,-0.944814 -0.746236,-0.27605 -4.055367,0.344879 -6.628281,1.24374 -3.328826,1.162939 -7.427293,3.366127 -8.89603,4.782177 -0.763984,0.736582 -1.389062,1.476309 -1.389062,1.643838 0,0.167532 0.528061,0.614066 1.173467,0.992299 0.645406,0.378235 1.608158,1.168849 2.139449,1.756926 1.041337,1.152636 2.770222,4.500297 2.776112,5.375428 0.0021,0.295145 0.09048,0.834287 0.196646,1.198089 0.190707,0.653483 0.194067,0.651888 0.278749,-0.132292 0.04714,-0.436562 0.317776,-1.714135 0.601404,-2.839048 z M 82.490579,127.22888 C 72.913649,126.75732 65.39453,123.57603 55.635371,115.86663 47.159783,109.17121 41.899924,101.11821 40.396827,92.535915 39.466218,87.222383 40.362667,78.419093 42.431377,72.556273 47.744843,57.497658 61.665455,47.580189 80.109329,45.713352 c 3.88382,-0.39311 13.11543,-0.178842 16.982792,0.394174 1.48241,0.219644 3.863659,0.691811 5.291669,1.049261 4.19164,1.049226 7.02038,1.49248 9.69698,1.519483 2.78183,0.02807 3.94725,-0.377333 6.65773,-2.315927 1.17182,-0.838112 1.46571,-0.932603 2.57318,-0.827317 1.48053,0.140753 3.37994,1.283345 3.37994,2.033211 0,0.487895 -0.57956,4.483076 -2.01745,13.907286 -0.48545,3.18172 -0.72645,6.029621 -0.82358,9.732306 -0.11893,4.533569 -0.19658,5.266108 -0.57998,5.471295 -0.3573,0.191222 -3.35795,0.379483 -4.6841,0.293883 -0.1705,-0.01101 -0.37995,-0.766749 -0.4854,-1.751454 -0.24877,-2.322968 -1.26726,-6.048465 -2.24013,-8.194083 -4.08117,-9.000828 -12.51866,-13.729607 -25.549571,-14.319212 -4.15427,-0.187968 -6.11038,0.190413 -9.26041,1.791295 -5.87351,2.984979 -10.74294,7.742693 -13.355307,13.048903 -3.099546,6.295752 -5.286756,16.998672 -4.949529,24.22008 0.466754,9.995094 6.896206,21.945584 13.506536,25.104724 2.167,1.03563 8.00259,2.58819 10.5658,2.81104 4.2016,0.3653 7.57473,0.20546 9.885652,-0.46841 7.377039,-2.1512 12.114199,-9.22257 13.299539,-19.852855 0.58361,-5.23382 0.19426,-8.424368 -1.43117,-11.727783 -3.0399,-6.178076 -9.325559,-9.698376 -15.350691,-8.59718 -8.22066,1.502468 -13.42329,11.647254 -9.87782,19.261093 0.66541,1.42895 2.98679,3.820985 4.193,4.320605 0.43452,0.17999 0.80223,0.4021 0.81714,0.49358 0.14427,0.88518 0.0761,2.6641 -0.11995,3.13016 -0.56062,1.33269 -3.09398,1.76258 -5.74612,0.9751 -3.68382,-1.09384 -6.27208,-4.06701 -7.93534,-9.115475 -0.79779,-2.42151 -1.02078,-8.41006 -0.40341,-10.833916 1.58863,-6.237149 6.69718,-11.906371 13.68783,-15.190086 3.91132,-1.837266 7.73344,-2.465485 12.222192,-2.008888 6.168519,0.627462 11.863749,2.879082 17.032459,6.73381 5.5686,4.15296 8.9401,8.886417 10.40265,14.604912 0.67799,2.650928 0.73747,8.455788 0.11977,11.689153 -2.26094,11.8349 -11.62677,20.79964 -24.67058,23.61408 -2.993079,0.64581 -11.191381,0.87625 -18.453071,0.51868 z m -0.3961,-9.4526 c -0.50889,-0.26162 -0.96067,-0.6662 -1.00395,-0.89906 -0.0481,-0.25851 0.66457,-1.03122 1.83006,-1.98437 4.18417,-3.42188 5.33921,-5.60619 5.37247,-10.15995 0.0168,-2.29319 -0.055,-2.66843 -0.81868,-4.28034 -1.05173,-2.219955 -2.57628,-4.474455 -4.30436,-6.365245 -1.13492,-1.24178 -1.3409,-1.62681 -1.3409,-2.506514 0,-3.684127 3.51923,-8.960287 7.062,-10.587633 1.1781,-0.541147 2.07152,-0.731999 3.82642,-0.81739 2.042682,-0.0994 2.441942,-0.03845 3.704162,0.56547 1.73673,0.83095 2.21179,1.208098 2.44424,1.940472 0.2333,0.735055 -1.10263,3.530344 -1.68723,3.530344 -0.53983,0 -1.46658,-0.62687 -2.78303,-1.88249 l -1.059492,-1.010531 -1.91674,1.058429 c -2.16496,1.195496 -2.64081,1.765199 -2.84733,3.40887 -0.20446,1.627241 0.4788,3.452688 1.87256,5.002883 1.48463,1.65126 2.90368,2.25481 4.729922,2.01173 3.85142,-0.51265 6.300649,-3.020389 7.088729,-7.258082 0.37282,-2.004772 0.95118,-2.470404 1.77212,-1.426739 1.66595,2.117905 -0.49603,7.711761 -6.581889,17.029836 -4.296942,6.57906 -8.893842,12.28846 -11.133372,13.82779 -1.78429,1.22641 -2.96501,1.45065 -4.22571,0.80252 z m -4.23411,-1.08041 c -1.34248,-0.90252 -1.3536,-1.2179 -0.0661,-1.87628 2.14168,-1.09524 4.05089,-3.29698 4.67417,-5.39034 0.10123,-0.33998 0.41674,-0.46303 1.18728,-0.46303 0.57717,0 1.37544,-0.12395 1.77392,-0.27545 0.56258,-0.21389 0.81127,-0.18869 1.11272,0.11276 0.34123,0.34123 0.24355,0.59071 -0.80707,2.06139 -0.65741,0.92025 -1.95405,2.45383 -2.88144,3.40797 -2.90912,2.99304 -3.6272,3.34147 -4.99344,2.42298 z m -5.42396,-4.0296 c -1.47367,-0.35941 -2.11273,-0.73676 -3.20043,-1.88976 -3.68112,-3.90212 -3.889939,-8.06109 -0.64178,-12.782115 1.47409,-2.14253 2.02275,-1.66561 3.18638,2.769755 0.5208,1.98511 0.74433,2.40818 1.90525,3.60607 1.55162,1.60102 1.5904,2.23202 0.15895,2.58674 -1.17172,0.29037 -2.4466,-0.15802 -3.04473,-1.07089 -0.22261,-0.33975 -0.60705,-1.41932 -0.8543,-2.39904 l -0.44955,-1.78132 -0.46003,1.63953 c -0.62233,2.21798 -0.30785,3.41096 1.22439,4.64468 2.21533,1.78372 3.9839,1.94992 5.99902,0.56376 l 1.369,-0.94169 1.17423,0.56842 c 0.64583,0.31264 1.17423,0.72446 1.17423,0.91516 0,0.66886 -2.81412,2.95128 -4.0114,3.25349 -1.77383,0.44774 -2.66544,0.52788 -3.52923,0.31721 z m 11.5972,-13.648345 c -0.84867,-1.1227 -1.76349,-2.32316 -2.03295,-2.66769 -0.39386,-0.50361 -0.42642,-0.70294 -0.16604,-1.01667 0.55091,-0.66381 1.18153,-0.43672 2.03895,0.73423 0.45287,0.61846 1.33254,1.75881 1.95483,2.53411 0.90432,1.12666 1.07551,1.498435 0.85283,1.852075 -0.56916,0.90384 -1.09405,0.61914 -2.64762,-1.436055 z m -9.94355,-32.012306 c -0.47294,-0.239041 -1.12779,-0.679572 -1.45521,-0.978959 -0.32742,-0.299384 -0.59531,-0.406929 -0.59531,-0.238984 0,0.167944 1.360071,1.248481 2.124051,1.686623 0.742695,0.425931 1.19374,0.797439 1.292645,0.888092 0.608892,0.558092 0.753768,1.264703 0.941733,2.056981 0.64187,2.918073 0.251291,4.016733 -1.087079,3.799544 l -0.89013,-0.144447 v 2.637698 c 0,1.673749 -0.13494,2.948839 -0.36924,3.489094 -0.20308,0.468268 -1.27104,2.920008 -2.37324,5.448311 -1.8472,4.237215 -1.97358,4.640352 -1.61514,5.152099 0.8552,1.220975 0.53227,2.014044 -1.84991,4.543004 -1.317888,1.3991 -2.420997,2.83927 -2.681776,3.50121 -0.564279,1.432315 -1.293553,1.514335 -1.839822,0.20694 h 3e-5 c -0.545656,-1.30594 -0.489376,-1.6506 0.466635,-2.85766 0.821476,-1.0372 0.826354,-1.05772 0.145301,-0.61148 -1.367226,0.89584 -1.941655,0.24714 -2.02234,-2.28383 -0.02906,-0.91161 0.216403,-1.243424 3.425158,-4.630213 4.894914,-5.166492 6.038474,-7.679031 6.059244,-13.312864 0.0102,-2.777675 -0.64225,-5.29236 -2.14636,-8.271981 -0.90901,-1.800743 -0.93252,-1.727549 1.36065,-4.23664 1.00648,-1.101249 1.56601,-1.508072 2.07832,-1.511102 0.38558,-0.0024 1.82046,-0.240403 3.18862,-0.529167 4.19072,-0.884488 7.22098,-0.556744 7.37938,0.798135 0.0425,0.363934 -0.0765,0.861295 -0.26458,1.105243 -0.4263,0.552966 -3.61855,1.855129 -3.98804,1.626773 -0.15542,-0.09605 -0.19221,-0.03889 -0.0858,0.133299 0.38721,0.626512 3.61109,2.727439 4.05841,2.644765 0.83054,-0.153509 1.6143,-2.316136 2.30687,-6.365396 0.87861,-5.136923 1.83505,-7.191478 2.92623,-6.285876 0.80386,0.667142 0.55118,2.567998 -1.4759,11.10302 -0.28704,1.208587 -0.0692,1.320591 2.57812,1.325549 1.67105,0.0031 2.26529,0.105431 2.60903,0.449167 0.40929,0.409292 0.41061,0.470342 0.0164,0.758585 -0.23579,0.172407 -2.41411,0.999042 -4.84072,1.836965 -3.72445,1.286076 -4.49252,1.473223 -4.92856,1.200909 -1.79862,-1.12326 -6.166076,-2.920218 -6.637411,-3.140774 -0.644087,-0.301394 -1.196551,-0.675785 -1.810259,-0.992633 z M 62.567454,87.21748 c -0.602459,-0.602459 -0.338465,-2.18068 0.736648,-4.403875 1.421601,-2.93969 1.761911,-4.302149 2.141569,-8.573937 0.305943,-3.442377 0.353833,-3.638021 0.890521,-3.638021 0.476917,0 0.681149,0.349925 1.283187,2.198569 0.44118,1.354704 0.71599,2.783935 0.71599,3.723661 0,2.743835 -1.925432,7.436352 -4.034352,9.83221 -1.122846,1.275622 -1.254109,1.340847 -1.733563,0.861393 z M 104.09879,69.344877 C 103.29917,67.297078 101.1437,59.1505 101.1437,58.176124 c 0,-1.420619 1.47294,-0.730822 2.42571,1.135996 1.27303,2.494325 2.35349,9.987838 1.51651,10.517772 -0.56536,0.357963 -0.67995,0.301662 -0.98713,-0.485015 z m -7.347619,-0.878226 c -0.81346,-0.238935 -0.82216,-0.260507 -0.99108,-2.458093 -0.17679,-2.299944 -0.94912,-6.433116 -1.63146,-8.730776 -0.539822,-1.817796 -0.512542,-2.551134 0.0949,-2.551134 0.93265,0 2.03244,1.88609 3.45909,5.932125 0.76282,2.163389 0.82601,2.593451 0.7576,5.156237 -0.0816,3.057223 -0.11733,3.113293 -1.68905,2.651641 z M 74.245059,60.397404 c -0.18867,-0.49167 -0.28239,-0.403032 2.55698,-2.418437 2.32861,-1.652871 4.73353,-2.987736 5.38276,-2.987736 0.2053,0 0.51002,0.16477 0.67716,0.366152 0.48119,0.579805 -1.98503,2.596007 -5.05592,4.133347 -2.8471,1.42531 -3.31613,1.544733 -3.56098,0.906674 z M 63.348716,48.183299 c -0.196043,-0.07286 -0.701966,-0.862836 -1.12427,-1.7555 -0.67197,-1.420413 -0.76785,-1.923301 -0.768033,-4.028371 -2.48e-4,-2.86236 0.436478,-4.48284 1.630773,-6.050986 1.665761,-2.187202 4.012398,-3.246017 7.761723,-3.502133 2.52931,-0.172776 3.1988,0.05804 6.38898,2.202714 3.57359,2.402428 4.52474,3.825484 5.01201,7.49874 0.14016,1.056607 0.0913,1.280901 -0.31267,1.435931 -0.84328,0.323596 -1.77024,-0.682194 -2.55939,-2.777053 -1.08255,-2.873706 -2.35811,-3.683876 -5.7815,-3.672098 -2.01353,0.0069 -3.52207,0.614062 -4.54431,1.828923 -1.1214,1.332712 -0.88223,3.721516 0.37261,3.721516 0.29782,0 1.22467,-0.400403 2.05967,-0.889784 2.04517,-1.198641 3.22962,-1.569693 4.02285,-1.260232 0.89129,0.347717 1.67451,1.150248 2.08151,2.132822 0.5439,1.313102 0.0793,1.542424 -1.72557,0.85174 -1.62735,-0.622755 -1.57332,-0.635115 -3.29439,0.753583 -2.09354,1.689233 -3.08581,1.913091 -4.73976,1.069306 -1.673673,-0.853842 -2.405966,-1.936689 -2.392382,-3.537631 0.01495,-1.763277 0.412181,-2.83739 1.811139,-4.897446 0.624293,-0.919311 1.079883,-1.726667 1.012423,-1.794126 -0.0675,-0.06746 -0.56079,0.135858 -1.096296,0.451814 -1.194784,0.70494 -2.612972,2.518792 -3.22753,4.12799 -0.435087,1.139261 -0.435576,1.347496 -0.0091,3.883821 0.247846,1.47401 0.448109,2.86562 0.445026,3.092469 -0.0083,0.60765 -0.613478,1.266383 -1.023506,1.113991 z"
       id="path939"
       inkscape:connector-curvature="0"
       sodipodi:nodetypes="ccsscscsccsccccssscccccccccccsssssssscssccscccccssscscsccssssscccsscccscssssscssssscsssscsscsccscsccsccccsccccsccccssscccscsccccssscscsscscccsssscssccccczzccscssszzcsssssscsccsssscccsccccccsscsccsccccscscccscsssssscssssscccsssssscccsscccccscssscssccccccssccccsccscccccscccccssscccccccssccsccscccssccccccccccscscccsscscsccccccccscccccccccscccscscssssssssssscscscssccccscscccscssccsccssscccccscsscccc" />
    <path
       id="path939-6"
       style="fill:#000000;stroke-width:0.264583"
       d="m -121.85364,221.4785 c -3.68038,-0.008 -8.05577,0.30188 -11.31765,0.87591 -11.44722,2.01449 -19.84013,6.0983 -26.99525,13.13563 -5.3338,5.246 -9.40984,11.68139 -12.26644,19.3673 -2.26364,6.09051 -3.14828,11.1566 -3.17965,18.20354 -0.026,5.83579 0.32318,8.9864 1.58234,14.27613 2.06565,8.6778 6.14006,15.92265 12.92272,22.97844 8.98116,9.34282 19.05945,14.89607 28.86232,15.90342 2.98248,0.30649 10.99826,0.31911 13.36146,0.0212 1.09141,-0.13758 3.25298,-0.5615 4.80384,-0.94205 3.40846,-0.83637 3.78297,-1.29895 1.92908,-2.38539 -2.65405,-1.55538 -6.97151,-2.87606 -14.61616,-4.47104 -2.51672,-0.52509 -5.59256,-1.2491 -6.83524,-1.60921 -2.69611,-0.7813 -6.38328,-2.17738 -6.57635,-2.48977 -0.0758,-0.1227 0.72589,-0.3749 1.78129,-0.56069 1.55743,-0.27417 2.31749,-0.59923 4.03541,-1.72547 1.16417,-0.76321 2.44163,-1.72754 2.83911,-2.14303 l 0.72295,-0.75551 -3.59513,-5.67924 c -1.97726,-3.12355 -4.06258,-6.56593 -4.63434,-7.64966 -1.09432,-2.07422 -2.97679,-7.24332 -2.81482,-7.72924 0.0523,-0.1568 0.38766,0.14513 0.74569,0.67076 0.65184,0.95695 1.41532,1.24934 1.64021,0.62839 0.20027,-0.55298 -0.0507,-3.02681 -0.75861,-7.47448 -1.17271,-7.36832 -1.20201,-7.68094 -0.9126,-9.76168 0.3248,-2.3352 0.84841,-3.97584 1.95182,-6.11332 1.12447,-2.17827 6.04073,-6.9679 10.45569,-10.18646 3.95173,-2.88085 4.29721,-3.46389 2.36368,-3.98994 -4.89625,-1.3321 -8.01347,-1.53804 -15.58923,-1.02991 -10.36165,0.69498 -16.18799,2.16692 -20.99045,5.302 -3.58644,2.34126 -6.23087,5.49868 -7.97367,9.52035 -0.99624,2.29888 -1.93115,6.28006 -1.95389,8.32146 -0.0144,1.29126 -0.0233,1.30664 -0.3886,0.63458 -0.30228,-0.5561 -0.32536,-1.16288 -0.11938,-3.15381 0.43884,-4.24169 1.55862,-10.26141 2.40347,-12.91963 2.44767,-7.70123 8.35943,-15.97769 16.36438,-22.91074 6.81358,-5.90121 12.961,-8.79505 19.73575,-9.28987 5.96984,-0.43602 10.71408,2.42682 10.77556,6.50193 0.0411,2.7221 -2.02616,4.28467 -4.51858,3.41581 -1.04482,-0.36423 -1.13443,-0.64592 -0.84853,-2.66857 0.15423,-1.09111 0.1436,-1.76709 -0.0305,-1.94097 -0.15573,-0.15555 -1.88809,-0.265 -4.15582,-0.262 -3.68322,0.005 -4.01828,0.0496 -6.32261,0.85008 -4.7931,1.66501 -10.14851,4.78628 -15.91479,9.27488 -7.32257,5.70005 -11.74056,10.7766 -12.78372,14.68954 -0.28978,1.087 -0.28239,1.30662 0.0506,1.51723 0.21418,0.13545 0.44918,0.24811 0.52194,0.25011 0.0728,0.002 1.01779,-1.07442 2.10013,-2.3921 1.08233,-1.31767 3.52842,-3.9074 5.43584,-5.75469 10.71906,-10.38112 19.62329,-15.86291 24.88375,-15.32 1.83988,0.1899 2.50528,0.56499 2.50528,1.41232 0,0.65465 -0.0414,0.67142 -1.25678,0.51005 -1.6673,-0.2214 -2.96096,0.45239 -3.47989,1.81281 -0.34269,0.89839 -0.32308,1.07426 0.25787,2.31459 0.8272,1.76612 3.38914,4.11897 7.47965,6.86986 3.66032,2.4616 6.02981,3.67187 7.19129,3.67213 0.8809,2.3e-4 4.09536,-1.76703 4.09536,-2.25154 0,-0.16617 -0.31131,-1.18613 -0.69195,-2.26653 -1.3426,-3.81081 -1.11174,-6.36349 0.88211,-9.74721 1.34194,-2.27735 4.34548,-5.32796 6.15984,-6.25647 1.90784,-0.97636 5.67738,-1.21798 8.09976,-0.51883 5.126189,1.47953 7.572588,4.74091 8.994797,11.98997 0.112742,0.57467 0.220165,0.60266 2.029336,0.52917 l 1.910477,-0.0775 0.132291,-1.05833 c 0.0887,-0.70966 0.206314,-0.94353 0.357085,-0.71004 0.468709,0.72584 2.398752,1.90066 3.122292,1.90066 1.15649,0 0.96464,-0.79697 -0.68368,-2.83962 -0.79075,-0.97992 -1.37663,-1.84281 -1.30173,-1.91771 0.075,-0.0749 1.17326,0.96471 2.44068,2.31045 1.94486,2.06504 2.43261,2.44688 3.12539,2.44688 0.4654,0 0.88352,-0.16296 0.96532,-0.3762 0.4951,-1.2902 -5.59776,-7.53266 -10.538898,-10.79779 -7.12511,-4.7083 -15.57605,-8.31971 -22.48958,-9.61079 -1.31705,-0.24595 -3.27516,-0.36553 -5.48339,-0.37052 z m 15.08436,9.81542 c -0.2666,0.006 -0.55356,0.0213 -0.86972,0.0429 -3.74932,0.25611 -6.09604,1.31491 -7.7618,3.50211 -1.1943,1.56815 -1.63116,3.18843 -1.63091,6.05079 1.8e-4,2.10507 0.0959,2.60829 0.76791,4.0287 0.42231,0.89266 0.92844,1.68255 1.12448,1.75545 0.41003,0.15239 1.01541,-0.5065 1.02371,-1.11415 0.003,-0.22685 -0.19709,-1.61831 -0.44493,-3.09232 -0.42648,-2.53633 -0.4263,-2.74474 0.009,-3.884 0.61456,-1.6092 2.03292,-3.42297 3.22771,-4.12791 0.5355,-0.31596 1.02856,-0.51915 1.09605,-0.45165 0.0675,0.0675 -0.38805,0.87489 -1.01234,1.7942 -1.39896,2.06006 -1.79631,3.1341 -1.81126,4.89738 -0.0136,1.60094 0.71895,2.6834 2.39262,3.53725 1.65395,0.84378 2.64623,0.62005 4.73977,-1.06918 1.72106,-1.3887 1.66702,-1.3762 3.29437,-0.75345 1.80487,0.69068 2.26937,0.46148 1.72547,-0.85162 -0.407,-0.98258 -1.19023,-1.7855 -2.08152,-2.13321 -0.79323,-0.30947 -1.97784,0.0617 -4.02301,1.26039 -0.835,0.48938 -1.76149,0.88987 -2.05931,0.88987 -1.25484,0 -1.49399,-2.38903 -0.37259,-3.72174 1.02224,-1.21487 2.53038,-1.82183 4.54391,-1.82883 3.42339,-0.0118 4.69901,0.79842 5.781561,3.67213 0.789151,2.09486 1.716254,3.10069 2.559534,2.77709 0.403971,-0.15503 0.452803,-0.37948 0.312642,-1.43608 -0.48727,-3.67325 -1.438505,-5.09634 -5.012097,-7.49877 -2.79141,-1.87662 -3.65284,-2.2876 -5.51904,-2.24534 z m 16.457908,21.4607 c -0.926088,-0.14319 -1.754581,1.99161 -2.523365,6.48643 -0.692568,4.04926 -1.476295,6.21199 -2.306836,6.3655 -0.447317,0.0827 -3.671456,-2.01829 -4.058666,-2.6448 -0.10641,-0.1722 -0.06963,-0.22942 0.08578,-0.13332 0.36949,0.22834 3.562088,-1.07382 3.988387,-1.62678 0.188079,-0.24395 0.307083,-0.74142 0.264583,-1.10536 -0.1584,-1.35488 -3.188676,-1.68237 -7.379391,-0.79788 -1.36816,0.28876 -2.80338,0.52716 -3.18896,0.52916 -0.51231,0.003 -1.07194,0.40977 -2.07842,1.51102 -2.29317,2.50909 -2.26965,2.43569 -1.36064,4.23644 1.50411,2.97962 2.15684,5.49468 2.14664,8.27236 -0.0208,5.63383 -1.16467,8.14639 -6.05958,13.31288 -3.20876,3.38679 -3.45418,3.7186 -3.42511,4.63021 0.0807,2.53097 0.65538,3.17942 2.02261,2.28358 0.68105,-0.44624 0.67626,-0.42586 -0.14521,0.61134 -0.95601,1.20705 -1.01229,1.55176 -0.46664,2.8577 0.54627,1.3074 1.2754,1.22562 1.83968,-0.2067 0.26078,-0.66194 1.3636,-2.10198 2.68149,-3.50108 2.38218,-2.52896 2.70522,-3.32241 1.85002,-4.54339 0.40038,-3.92417 1.98536,-5.98502 3.98839,-10.60039 0.23429,-0.54025 0.36948,-1.81493 0.36948,-3.48868 v -2.63808 l 0.88987,0.1447 c 1.33837,0.21718 1.72914,-0.8817 1.08727,-3.79977 -0.18796,-0.79228 -0.33265,-1.49863 -0.94154,-2.05672 -0.0989,-0.0907 -0.55025,-0.46239 -1.29295,-0.88832 -0.76398,-0.43814 -2.1239,-1.51878 -2.1239,-1.68672 0,-0.16795 0.26789,-0.0601 0.59531,0.23926 0.32742,0.29939 0.98227,0.73971 1.45521,0.97875 0.61371,0.31685 1.16614,0.69132 1.81023,0.99271 0.47133,0.22056 4.838698,2.01763 6.637317,3.14089 0.436042,0.27231 1.203934,0.0851 4.928384,-1.20096 2.426617,-0.83793 4.605257,-1.66469 4.841047,-1.8371 0.39421,-0.28824 0.39276,-0.34932 -0.0165,-0.75861 -0.34374,-0.34374 -0.9381,-0.44606 -2.60915,-0.44907 -2.647321,-0.005 -2.865176,-0.1169 -2.578138,-1.32549 2.027088,-8.53503 2.279748,-10.43606 1.475888,-11.1032 -0.1364,-0.1132 -0.27026,-0.18005 -0.40256,-0.20051 z m 6.04666,0.46251 c -0.60744,0 -0.63439,0.73347 -0.0946,2.55126 0.68234,2.29766 1.45463,6.43079 1.63142,8.73073 0.16892,2.19759 0.1777,2.21881 0.99116,2.45773 1.57172,0.46165 1.60718,0.40571 1.68878,-2.65151 0.0684,-2.56279 0.005,-2.99289 -0.75757,-5.15628 -1.42665,-4.04603 -2.52657,-5.93193 -3.45922,-5.93193 z m -12.038545,0.26458 c -0.64923,0 -3.054006,1.33506 -5.382613,2.98793 -2.83937,2.0154 -2.74562,1.92679 -2.55695,2.41846 0.24484,0.63806 0.71392,0.51839 3.56102,-0.90692 3.070887,-1.53734 5.537211,-3.55379 5.056021,-4.1336 -0.16714,-0.20138 -0.472178,-0.36587 -0.677478,-0.36587 z m -37.546033,1.99471 c 0.16693,0.008 0.29998,0.028 0.39326,0.0625 0.597,0.22085 0.57248,0.26018 -0.59634,0.94516 -4.12041,2.41471 -7.78201,7.64712 -9.15087,13.0762 -0.28363,1.12492 -0.55437,2.40255 -0.60151,2.83911 -0.0847,0.78418 -0.0883,0.78577 -0.27905,0.13229 -0.10617,-0.3638 -0.19427,-0.90323 -0.19637,-1.19838 -0.006,-0.87513 -1.73472,-4.22274 -2.77606,-5.37538 -0.53129,-0.58807 -1.494,-1.37825 -2.1394,-1.75648 -0.64541,-0.37824 -1.17358,-0.82518 -1.17358,-0.99271 0,-0.16753 0.62508,-0.90724 1.38907,-1.64382 1.46873,-1.41605 5.56727,-3.6192 8.89609,-4.78214 2.2513,-0.7865 5.06628,-1.36017 6.23476,-1.30638 z m 57.021328,0.43305 c -0.30916,-0.0116 -0.51625,0.22433 -0.51625,0.75706 0,0.97438 2.15524,9.12103 2.95486,11.16883 0.30718,0.78667 0.42166,0.84268 0.98702,0.48472 0.83698,-0.52993 -0.24315,-8.02338 -1.51618,-10.5177 -0.59549,-1.16677 -1.39418,-1.87358 -1.90945,-1.89291 z m -82.272498,7.50858 c 2.41658,0.0127 3.01916,0.11207 4.63021,0.76326 5.19213,2.09867 8.60256,6.43716 8.64547,10.99778 0.0241,2.56412 -0.25169,3.87029 -1.27021,6.01462 -1.46443,3.08312 -4.68301,5.96282 -7.90856,7.07606 -0.72534,0.25034 -2.27128,0.5 -3.43545,0.555 -3.58682,0.16941 -6.32704,-0.84304 -8.82478,-3.26078 -0.33294,-0.32227 -1.56061,-1.44644 -1.78232,-1.70843 -0.49929,-0.75809 -0.90057,-1.90354 -1.11673,-2.55384 -0.21616,-0.6503 -0.57911,-1.63522 -0.71365,-2.7709 -0.0865,-0.64185 -0.0548,-1.63348 -0.0548,-1.63348 0.002,-0.30332 0.0277,-0.72399 0.0816,-1.14671 l 0.1695,-1.18907 c -0.004,-1.29105 1.37093,-4.35071 2.4231,-5.90145 1.20975,-1.78298 3.36635,-3.7773 4.8979,-4.52944 1.33824,-0.65719 1.74762,-0.72582 4.25865,-0.71262 z m 0.6072,1.1157 c -1.74943,0.004 -3.51712,0.3875 -5.06842,1.14877 -3.10675,1.52456 -6.31846,4.92904 -6.83576,8.3044 -0.13627,1.19886 -0.30472,2.39944 -0.28474,3.60908 0.0203,0.70982 0.0215,0.98505 0.21136,1.81488 0.18981,0.82983 0.69726,2.42888 1.07487,3.09955 0.37761,0.67066 0.709,1.66677 1.90376,2.66857 1.19475,1.00181 4.43656,2.65999 8.57312,2.74918 2.32255,0.0501 2.759,-0.0186 4.13359,-0.65112 4.8214,-2.21862 8.04825,-9.17058 6.69882,-14.43168 -0.76509,-2.98288 -3.00919,-5.94361 -5.44876,-7.18819 -1.47708,-0.75357 -3.20841,-1.12789 -4.95784,-1.12344 z m -0.0434,3.76463 c 3.20067,0 5.80904,1.64317 7.45123,4.69377 1.03768,1.92764 1.17,3.50527 0.4687,5.5795 -0.9626,2.84707 -2.43593,4.86031 -4.40903,6.02392 -0.90849,0.53576 -1.48876,0.64994 -3.57188,0.70384 -2.09488,0.0542 -2.68541,-0.0277 -3.74395,-0.51884 -0.69123,-0.32072 -1.25678,-0.63216 -1.25678,-0.69246 0,-0.0604 0.68461,0.05 1.52136,0.24546 0.83674,0.19548 2.37416,0.43377 3.41684,0.52917 1.63493,0.14961 2.06194,0.0927 3.10111,-0.41031 1.39879,-0.67714 2.67602,-2.28094 3.90208,-4.90099 0.7622,-1.62879 0.81909,-1.93704 0.68575,-3.70004 -0.3316,-4.38457 -3.10992,-7.02386 -7.39335,-7.02386 -1.75397,0 -3.27584,0.63578 -4.13463,1.72754 -1.53021,1.94535 -1.80683,5.29035 -0.54828,6.63009 0.70569,0.75123 1.63899,0.77011 3.89226,0.078 1.32102,-0.40573 1.73382,-0.2353 2.63447,1.08727 1.01768,1.49443 0.71679,3.0917 -0.72244,3.83595 -0.95921,0.49604 -3.18022,0.51784 -4.31343,0.0424 -1.26561,-0.53102 -2.75916,-2.20397 -3.67729,-4.11809 -0.7293,-1.52043 -0.79798,-1.87062 -0.65836,-3.36569 0.41153,-4.40702 2.73888,-6.44663 7.35562,-6.44663 z m 46.38477,0.79375 c -0.53669,0 -0.58445,0.19564 -0.89039,3.63802 -0.37966,4.27179 -0.71987,5.63394 -2.14147,8.57363 -1.07511,2.2232 -1.33936,3.80192 -0.73691,4.40439 0.47946,0.47945 0.6109,0.41417 1.73375,-0.86145 2.10892,-2.39586 4.03438,-7.08865 4.03438,-9.83247 0,-0.93974 -0.27506,-2.36911 -0.71624,-3.72381 -0.60204,-1.84865 -0.80621,-2.19831 -1.28312,-2.19831 z m -45.81478,2.20968 c 1.51432,0.0646 2.86704,1.20598 3.82974,3.29747 0.35595,0.77331 0.5943,1.45829 0.5302,1.52239 -0.0641,0.0641 -0.871,-0.37085 -1.79317,-0.96686 -2.19852,-1.42098 -3.08302,-1.563 -4.15013,-0.66508 -0.44952,0.37824 -1.12771,0.68781 -1.50689,0.68781 -0.62269,0 -0.68936,-0.0981 -0.68936,-1.01234 0,-1.17149 0.63135,-1.90091 2.22002,-2.5647 0.53235,-0.22243 1.05482,-0.32023 1.55959,-0.29869 z m 73.459088,7.32565 c -0.34441,-10e-4 -0.7523,0.0139 -1.26298,0.0388 -1.7549,0.0854 -2.64802,0.27637 -3.82612,0.81752 -3.54277,1.62734 -7.062101,6.90334 -7.062101,10.58747 0,0.8797 0.206084,1.26452 1.341003,2.5063 1.728079,1.89078 3.252399,4.14555 4.304131,6.36551 0.763677,1.61191 0.835357,1.98717 0.818557,4.28036 -0.0333,4.55376 -1.188114,6.73822 -5.372285,10.1601 -1.16549,0.95315 -1.877962,1.72586 -1.829864,1.98437 0.04328,0.23286 0.494668,0.63704 1.003557,0.89866 1.2607,0.64813 2.44181,0.42387 4.2261,-0.80254 2.239532,-1.53933 6.836222,-7.24852 11.133172,-13.82758 6.08586,-9.31808 8.24798,-14.91206 6.58203,-17.02996 -0.82094,-1.04367 -1.39969,-0.57799 -1.7725,1.42678 -0.78808,4.2377 -3.23704,6.74529 -7.08846,7.25795 -1.82625,0.24307 -3.24531,-0.35999 -4.72994,-2.01124 -1.39376,-1.5502 -2.07722,-3.37607 -1.87276,-5.00331 0.20652,-1.64367 0.68241,-2.21308 2.84737,-3.40858 l 1.91668,-1.05834 1.05988,1.01028 c 1.31646,1.25562 2.24295,1.88257 2.78278,1.88257 0.5846,0 1.92054,-2.79548 1.68724,-3.53053 -0.23245,-0.73237 -0.70757,-1.1095 -2.4443,-1.94045 -0.94666,-0.45298 -1.40798,-0.60059 -2.44119,-0.6041 z m -87.648398,5.03949 c 0.0533,-0.0151 0.0909,0.0369 0.0909,0.14056 0,0.13825 1.49693,2.74753 3.32641,5.79861 3.60669,6.01497 6.62712,11.8562 7.52254,14.54691 0.31074,0.93378 0.52713,2.01425 0.48059,2.40141 -0.0828,0.68861 -0.10858,0.67583 -1.16582,-0.58601 -3.05155,-3.64211 -6.48757,-9.754 -8.42533,-14.98668 -1.02633,-2.7715 -2.13139,-7.03292 -1.88722,-7.27708 0.0205,-0.0204 0.0401,-0.0327 0.0579,-0.0377 z m 76.163822,9.78906 c -0.236765,-0.004 -0.454866,0.11901 -0.661458,0.36794 -0.260379,0.31374 -0.227462,0.51287 0.166399,1.01647 0.26946,0.34453 1.18428,1.54536 2.03295,2.66806 1.55357,2.0552 2.078223,2.33993 2.647384,1.43609 0.222681,-0.35364 0.05166,-0.72543 -0.852662,-1.85209 -0.62229,-0.7753 -1.502048,-1.91575 -1.954919,-2.53421 -0.535887,-0.73184 -0.983084,-1.09487 -1.377694,-1.10226 z m -12.552722,1.79421 c -0.37374,-0.004 -0.79597,0.4311 -1.34875,1.23455 -3.24816,4.72103 -3.0393,8.88004 0.64182,12.78216 1.0877,1.153 1.72665,1.5304 3.20032,1.88981 0.86379,0.21067 1.75515,0.13045 3.52898,-0.31729 1.19728,-0.30221 4.011643,-2.58469 4.011643,-3.25355 0,-0.1907 -0.528259,-0.60255 -1.174088,-0.91519 l -1.174605,-0.56844 -1.36891,0.94206 c -2.01512,1.38616 -3.78379,1.21993 -5.99912,-0.56379 -1.53224,-1.23372 -1.84654,-2.4267 -1.22421,-4.64468 l 0.45992,-1.63969 0.44958,1.78129 c 0.24726,0.97972 0.6316,2.05907 0.85421,2.39882 0.59813,0.91287 1.87306,1.36162 3.04478,1.07125 1.43145,-0.35472 1.39297,-0.9859 -0.15864,-2.58692 -1.16093,-1.19789 -1.38452,-1.62088 -1.90532,-3.60598 -0.72727,-2.77211 -1.21471,-3.99794 -1.83761,-4.00441 z m -43.86967,1.95285 c 1.23746,0.007 2.32265,0.43646 3.14761,1.26142 0.62788,0.62789 0.74982,0.96946 0.74982,2.10478 0,1.0919 -0.12842,1.48338 -0.6599,2.01487 -0.72582,0.72581 -0.8227,0.70458 -2.8205,-0.61237 -0.83435,-0.55001 -1.04143,-0.59048 -1.51361,-0.29559 -1.17547,0.73408 -1.35226,2.60644 -0.4501,4.7656 1.17981,2.82367 7.2595,8.81698 11.67112,11.50524 4.51419,2.75077 15.53734,5.56544 22.20537,5.66994 0.73313,0.0115 1.21419,0.07 1.06866,0.12971 -0.93575,0.38412 -3.7481,0.47746 -5.95312,0.1974 -1.38245,-0.17558 -3.88276,-0.44135 -5.55625,-0.59066 -3.99429,-0.35637 -7.2194,-1.17668 -11.24479,-2.85977 -8.82913,-3.69161 -13.75676,-7.83938 -15.48794,-13.03693 -0.46939,-1.40939 -0.55424,-2.17345 -0.47078,-4.23333 0.15368,-3.79308 1.17598,-5.28623 4.03025,-5.88492 0.44231,-0.0928 0.87167,-0.13761 1.28416,-0.13539 z m 11.40447,0.55501 3.28145,4.91546 c 1.80483,2.70353 3.32723,4.98811 3.38326,5.07721 0.056,0.0891 -1.05615,0.43965 -2.47117,0.77876 -1.41501,0.33912 -3.32327,0.88748 -4.24108,1.21853 l -1.66915,0.60203 0.18758,-0.58704 c 0.71707,-2.24356 0.9595,-3.74958 1.22629,-7.61866 z m 48.471457,9.28522 c -0.14202,0.011 -0.308896,0.0578 -0.519864,0.13797 -0.398478,0.1515 -1.196364,0.27544 -1.773534,0.27544 -0.77054,0 -1.086294,0.12304 -1.187524,0.46302 -0.623281,2.09336 -2.532454,4.29513 -4.674135,5.39037 -1.2875,0.65838 -1.27633,0.97385 0.0662,1.87637 1.36624,0.91849 2.084375,0.56993 4.993495,-2.42311 0.927389,-0.95414 2.224066,-2.48781 2.881477,-3.40806 1.05062,-1.47068 1.148416,-1.72014 0.807185,-2.06137 -0.188404,-0.18841 -0.356542,-0.26898 -0.593246,-0.25063 z"
       sodipodi:nodetypes="sssssssssssssssscccsssssssssssssssssssssscsssscsssssssssssssssccssssssscsssscssscssssssssssssssscsssssccsscscscsscsssssssssccccsssscssssscsssssssssssssssssssssscsssssssssssscsscssscsccccsssssccsssssssssssssssssssssssssssssssssccssssssssssssssssssssssssssssscccssssssssssssscssssscssscccsssssccssssssssssssssscssscssscscssccssssssssssscsssssssss" />
    <path
       inkscape:connector-curvature="0"
       d="m -58.305602,135.236 c -0.98973,-0.004 -2.29578,0.95753 -3.15226,2.32027 -1.65758,2.63733 -3.31745,6.06038 -3.1502,6.49624 0.1549,0.40365 1.27601,0.44132 13.15786,0.44132 h 12.98835 l -2.19832,1.49603 c -11.82843,8.04827 -17.78658,17.04089 -17.32762,26.15293 0.16042,3.18492 0.69826,5.35962 2.04277,8.26254 2.7231,5.87938 7.82202,9.87437 14.6265,11.45977 1.82277,0.42472 2.95698,0.49001 7.19129,0.41341 4.36971,-0.0791 5.36393,-0.18012 7.60367,-0.77101 4.11607,-1.08591 7.48461,-3.13209 9.84746,-5.98155 1.42605,-1.71974 1.80782,-2.53887 1.35702,-2.913 -0.27645,-0.22943 -0.70276,-0.1107 -1.83761,0.51211 -2.10185,1.15351 -6.33231,2.89588 -8.50388,3.50212 -2.57719,0.71948 -6.63966,0.88541 -9.06456,0.37052 -6.46777,-1.37335 -11.31577,-6.25336 -12.65762,-12.74186 -0.59238,-2.86442 -0.39201,-8.18068 0.41289,-10.96264 1.16884,-4.03982 3.98612,-8.49493 7.80624,-12.34447 3.31615,-3.3417 5.95152,-4.96285 9.65006,-5.93659 1.7611,-0.46365 2.87557,-0.51831 10.59832,-0.51831 h 8.63048 l 0.8800496,-1.82004 c 0.4842,-1.00093 0.79801,-1.95343 0.69711,-2.11667 -0.13256,-0.21453 -5.1493796,-0.29834 -18.0934596,-0.30334 -9.85044,-0.004 -19.10014,-0.12131 -20.55534,-0.26097 -3.39634,-0.32596 -5.00141,-0.9422 -7.9375,-3.04736 -1.32215,-0.94798 -2.66179,-1.70845 -3.0117,-1.70945 z"
       style="fill:#000000;stroke-width:0.264583"
       id="path939-7" />
    <path
       inkscape:connector-curvature="0"
       d="m 19.45088,267.97499 c -0.98973,-0.004 -2.29578,0.95753 -3.15226,2.32027 -1.65758,2.63733 -3.31745,6.06038 -3.1502,6.49624 0.1549,0.40365 1.27601,0.44132 13.15786,0.44132 h 12.98835 l -2.19832,1.49603 c -11.82843,8.04827 -17.78658,17.04089 -17.32762,26.15293 0.16042,3.18492 0.69826,5.35962 2.04277,8.26254 2.7231,5.87938 7.82202,9.87437 14.6265,11.45977 1.82277,0.42472 2.95698,0.49001 7.19129,0.41341 4.369709,-0.0791 5.363929,-0.18012 7.603669,-0.77101 4.11607,-1.08591 7.48461,-3.13209 9.84746,-5.98155 1.42605,-1.71974 1.80782,-2.53887 1.35702,-2.913 -0.27645,-0.22943 -0.70276,-0.1107 -1.83761,0.51211 -2.10185,1.15351 -6.33231,2.89588 -8.50388,3.50212 -2.57719,0.71948 -6.63966,0.88541 -9.064559,0.37052 -6.46777,-1.37335 -11.31577,-6.25336 -12.65762,-12.74186 -0.59238,-2.86442 -0.39201,-8.18068 0.41289,-10.96264 1.16884,-4.03982 3.98612,-8.49493 7.80624,-12.34447 3.31615,-3.3417 5.951519,-4.96285 9.650059,-5.93659 1.7611,-0.46365 2.87557,-0.51831 10.59832,-0.51831 h 8.63048 l 0.88005,-1.82004 c 0.4842,-1.00093 0.79801,-1.95343 0.69711,-2.11667 -0.13256,-0.21453 -5.14938,-0.29834 -18.09346,-0.30334 -9.850439,-0.004 -19.100139,-0.12131 -20.555339,-0.26097 -3.39634,-0.32596 -5.00141,-0.9422 -7.9375,-3.04736 -1.32215,-0.94798 -2.66179,-1.70845 -3.0117,-1.70945 z"
       style="fill:#808000;stroke-width:0.264583"
       id="path939-7-6" />
    <path
       sodipodi:nodetypes="cccscsssccscssccccccccssccccscccscccssscc"
       inkscape:connector-curvature="0"
       d="m -88.238402,30.206734 c -0.6048,0.0215 -0.98975,0.23183 -1.86862,0.86041 -2.71048,1.93859 -3.87616,2.34373 -6.65799,2.31562 -2.6766,-0.027 -5.504928,-0.47006 -9.696568,-1.51929 -1.42801,-0.35745 -3.80926,-0.82938 -5.29167,-1.04903 -3.86736,-0.57302 -13.09912,-0.7874 -16.98294,-0.39429 -18.44386,1.86683 -32.36434,11.78419 -37.6778,26.8428 -2.06871,5.862817 -2.96511,14.666127 -2.0345,19.979657 1.5031,8.5823 6.76276,16.63547 15.23834,23.330879 9.75916,7.7094 17.27828,10.89054 26.85521,11.36209 7.26169,0.35758 15.46006,0.12698 18.45314,-0.51883 13.043798,-2.81444 22.409388,-11.779159 24.670328,-23.614059 0.6177,-3.23337 0.55862,-9.03829 -0.11937,-11.68921 -1.46255,-5.7185 -4.83439,-10.45184 -10.40298,-14.60479 -5.16871,-3.854717 -10.864048,-6.106477 -17.032558,-6.733947 -4.48875,-0.4566 -8.31067,0.17191 -12.22199,2.00917 -9.87578,5.755207 -16.76325,14.591407 -13.28446,26.023737 1.66326,5.04847 4.25161,8.02188 7.93543,9.11572 2.65213,0.78748 5.18528,0.35755 5.7459,-0.97513 0.19605,-0.46606 0.26416,-2.24487 0.11989,-3.13004 -0.0149,-0.0915 -0.38248,-0.31353 -0.817,-0.49352 -1.20621,-0.49961 -3.52762,-2.89171 -4.19303,-4.32066 -3.54547,-7.61382 1.65729,-17.75889 9.87795,-19.26136 6.02513,-1.1012 12.31059,2.41933 15.35049,8.59741 1.62543,3.30342 2.01505,6.49363 1.43144,11.72745 -1.18535,10.63029 -5.92241,17.701849 -13.29945,19.853049 -2.31092,0.67387 -5.6841,0.8335 -9.8857,0.46819 -2.56322,-0.22284 -8.39877,-1.77506 -10.56577,-2.81068 -6.61033,-3.159149 -13.03991,-15.109829 -13.50667,-25.104929 -0.33722,-7.2214 1.85002,-17.924467 4.94957,-24.220217 2.61237,-5.30622 7.48175,-10.06385 13.35526,-13.04882 3.15003,-1.60088 5.10615,-1.97907 9.26041,-1.79111 13.03092,0.5896 21.468178,5.3182 25.549348,14.31903 0.97287,2.14562 1.99141,5.87136 2.24017,8.194327 0.10546,0.98471 0.31526,1.74031 0.48576,1.75131 1.32615,0.0856 4.32666,-0.10282 4.68396,-0.29404 0.38339,-0.20518 0.46087,-0.93741 0.57981,-5.470977 0.0971,-3.70269 0.33827,-6.5505 0.82372,-9.73222 1.43789,-9.42421 2.01744,-13.41978 2.01744,-13.90768 0,-0.74986 -1.89962,-1.89219 -3.38015,-2.03295 -0.27687,-0.0263 -0.50275,-0.0402 -0.70435,-0.0331 z"
       style="fill:#000000;stroke-width:0.264583"
       id="path939-72" />
    <path
       inkscape:export-ydpi="750"
       inkscape:export-xdpi="750"
       id="path939-72-4"
       style="fill:#000000;stroke-width:0.264583"
       d="m -95.930222,122.75496 c -0.6048,0.0215 -0.98975,0.23183 -1.86863,0.86041 -2.710468,1.93859 -3.876158,2.34373 -6.657988,2.31562 -2.6766,-0.027 -5.50493,-0.47006 -9.69656,-1.51929 -1.42802,-0.35745 -3.80926,-0.82938 -5.29167,-1.04903 -3.86736,-0.57302 -13.09912,-0.7874 -16.98294,-0.39429 -18.44386,1.86683 -30.76072,11.91782 -36.07419,26.97643 -2.06871,5.86282 -2.96511,14.66613 -2.0345,19.97966 1.5031,8.5823 3.95643,15.83367 10.8284,23.06362 9.75916,7.7094 17.27828,10.89054 26.85521,11.36209 7.26169,0.35758 15.46005,0.12698 18.45313,-0.51883 13.0438,-2.81444 22.409398,-11.77916 24.670338,-23.61406 0.6177,-3.23337 0.55862,-9.03829 -0.11937,-11.68921 -1.46255,-5.7185 -4.83439,-10.45184 -10.402988,-14.60479 -5.16871,-3.85472 -10.86404,-6.10648 -17.03256,-6.73395 -4.48874,-0.4566 -8.31067,0.17191 -12.22199,2.00917 -9.87577,5.75521 -16.76324,14.59141 -13.28445,26.02374 1.66325,5.04847 4.25161,8.02188 7.93543,9.11572 2.65212,0.78748 5.18528,0.35755 5.7459,-0.97513 0.19605,-0.46606 0.26416,-2.24487 0.11989,-3.13004 -0.0149,-0.0915 -0.38248,-0.31353 -0.817,-0.49352 -1.20621,-0.49961 -3.52762,-2.89171 -4.19303,-4.32066 -3.54547,-7.61382 1.65729,-17.75889 9.87795,-19.26136 6.02513,-1.1012 17.65598,1.48389 20.69587,7.66197 1.62543,3.30342 2.28232,8.36451 1.69871,13.59833 -1.18534,10.63029 -11.53507,16.76641 -18.91211,18.91761 -2.31092,0.67387 -5.6841,0.8335 -9.8857,0.46819 -2.56321,-0.22284 -8.39876,-1.77506 -10.56576,-2.81068 -9.82313,-4.86004 -13.34028,-10.9284 -17.22158,-20.15095 -2.86867,-6.81637 -1.19414,-22.51254 6.79359,-31.04509 4.04201,-4.31771 7.88266,-8.3266 14.55797,-10.77703 3.15003,-1.60088 8.58065,-2.24634 12.73492,-2.05838 13.03091,0.5896 21.46817,5.3182 25.54934,14.31903 0.97287,2.14562 1.99142,5.87136 2.24018,8.19433 0.10546,0.98471 0.31526,1.74031 0.485758,1.75131 1.32615,0.0856 4.32666,-0.10282 4.68396,-0.29404 0.38339,-0.20518 0.46087,-0.93741 0.57981,-5.47098 0.0971,-3.70269 0.33827,-6.5505 0.82372,-9.73222 1.43789,-9.42421 2.01744,-13.41978 2.01744,-13.90768 0,-0.74986 -1.89962,-1.89219 -3.38015,-2.03295 -0.27687,-0.0263 -0.50275,-0.0402 -0.70435,-0.0331 z"
       inkscape:connector-curvature="0"
       sodipodi:nodetypes="cccscsssccscssccccccccssccccssccscccsssccc" />
    <path
       inkscape:export-ydpi="750"
       inkscape:export-xdpi="750"
       sodipodi:nodetypes="cccsccsccccccccccccsccccscc"
       id="path939-7-5"
       style="fill:#000000;stroke-width:0.264583"
       d="m -69.052812,39.876934 c -0.98973,-0.004 -2.95724,2.56393 -3.81372,3.92667 -1.65758,2.63733 -3.31745,6.06038 -3.1502,6.49624 0.1549,0.40365 1.27601,0.44132 13.15786,0.44132 h 10.18202 l -2.19832,1.49603 c -11.82843,8.048267 -14.98025,17.040887 -14.52129,26.152927 0.16042,3.18492 0.69826,5.35962 2.04277,8.26254 2.7231,5.87938 7.82202,9.87437 14.6265,11.45977 1.82277,0.42472 2.95698,0.49001 7.19129,0.41341 4.36971,-0.0791 5.36393,-0.18012 7.60367,-0.77101 4.11607,-1.08591 7.48461,-3.13209 9.84746,-5.98155 1.42605,-1.71974 1.80782,-2.53887 1.35702,-2.913 -0.27645,-0.22943 -0.70276,-0.1107 -1.83761,0.51211 -4.39558,2.14959 -9.81292,4.60258 -13.29213,3.87264 -6.46777,-1.37335 -11.31577,-6.25336 -12.65762,-12.74186 -0.59238,-2.86442 -0.39201,-8.18068 0.41289,-10.96264 1.16884,-4.03982 3.98612,-8.49493 7.80624,-12.344467 3.31615,-3.3417 5.95152,-4.96285 9.65006,-5.93659 1.7611,-0.46365 -1.40074,-0.51831 6.32201,-0.51831 h 8.63048 l 0.88005,-1.82004 c 0.4842,-1.00093 1.45947,-3.55983 1.35857,-3.72307 -0.13256,-0.21453 -5.14938,-0.29834 -18.09346,-0.30334 -9.85044,-0.004 -19.10014,-0.12131 -20.55534,-0.26097 -3.39634,-0.32596 -5.00141,-0.9422 -7.9375,-3.04736 -1.32215,-0.94798 -2.66179,-1.70845 -3.0117,-1.70945 z"
       inkscape:connector-curvature="0" />
    <text
       xml:space="preserve"
       style="font-style:normal;font-variant:normal;font-weight:normal;font-stretch:normal;font-size:21.1666px;line-height:1.25;font-family:'Apple Chancery';-inkscape-font-specification:'Apple Chancery';fill:#000000;fill-opacity:1;stroke:none;stroke-width:0.529165"
       x="-58.782749"
       y="321.65427"
       id="text1202"><tspan
         sodipodi:role="line"
         id="tspan1200"
         style="font-style:italic;font-variant:normal;font-weight:normal;font-stretch:normal;font-family:'Apple Chancery';-inkscape-font-specification:'Apple Chancery';stroke-width:0.529165"
         x="-58.782749"
         y="321.65427">reenhill</tspan></text>
    <text
       xml:space="preserve"
       style="font-style:normal;font-weight:normal;font-size:21.1666px;line-height:1.25;font-family:sans-serif;fill:#000000;fill-opacity:1;stroke:none;stroke-width:0.529166"
       x="62.199753"
       y="321.65424"
       id="text10560"><tspan
         sodipodi:role="line"
         id="tspan10558"
         style="font-style:italic;font-variant:normal;font-weight:normal;font-stretch:normal;font-family:'Apple Chancery';-inkscape-font-specification:'Apple Chancery';stroke-width:0.529166"
         x="62.199753"
         y="321.65424">ravellers</tspan></text>
  </g>
</svg>
