<?xml version="1.0" encoding="UTF-8" standalone="no"?>
<!-- Created with Inkscape (http://www.inkscape.org/) -->

<svg
   width="312.13452mm"
   height="104.97795mm"
   viewBox="0 0 312.13452 104.97795"
   version="1.1"
   id="svg12767"
   sodipodi:docname="title.svg"
   inkscape:version="1.1.2 (b8e25be8, 2022-02-05)"
   xmlns:inkscape="http://www.inkscape.org/namespaces/inkscape"
   xmlns:sodipodi="http://sodipodi.sourceforge.net/DTD/sodipodi-0.dtd"
   xmlns="http://www.w3.org/2000/svg"
   xmlns:svg="http://www.w3.org/2000/svg">
  <sodipodi:namedview
     id="namedview12769"
     pagecolor="#ffffff"
     bordercolor="#666666"
     borderopacity="1.0"
     inkscape:pageshadow="2"
     inkscape:pageopacity="0.0"
     inkscape:pagecheckerboard="0"
     inkscape:document-units="mm"
     showgrid="false"
     inkscape:zoom="0.64052329"
     inkscape:cx="1131.887"
     inkscape:cy="250.57637"
     inkscape:window-width="1312"
     inkscape:window-height="969"
     inkscape:window-x="0"
     inkscape:window-y="1131"
     inkscape:window-maximized="0"
     inkscape:current-layer="layer1" />
  <defs
     id="defs12764" />
  <g
     inkscape:label="Layer 1"
     inkscape:groupmode="layer"
     id="layer1"
     transform="translate(51.559615,-40.865687)">
    <path
       sodipodi:nodetypes="cccscsssccscssccccccccssccccscccscccssscc"
       inkscape:connector-curvature="0"
       d="m 66.10727,63.083298 c -0.6048,0.0215 -0.98975,0.23183 -1.86862,0.86041 -2.71048,1.93859 -3.87616,2.34373 -6.65799,2.31562 -2.6766,-0.027 -5.504928,-0.47006 -9.696568,-1.51929 -1.42801,-0.35745 -3.80926,-0.82938 -5.29167,-1.04903 -3.86736,-0.57302 -13.09912,-0.7874 -16.98294,-0.39429 -18.4438571,1.86683 -32.3643371,11.78419 -37.677797,26.8428 -2.06871,5.86281 -2.96511,14.666122 -2.0345,19.979652 1.5031,8.5823 6.7627599,16.63547 15.2383399,23.33088 9.7591601,7.7094 17.2782801,10.89054 26.8552071,11.36209 7.26169,0.35758 15.46006,0.12698 18.45314,-0.51883 13.043798,-2.81444 22.409388,-11.77916 24.670328,-23.61406 0.6177,-3.23337 0.55862,-9.03829 -0.11937,-11.68921 -1.46255,-5.7185 -4.83439,-10.451842 -10.40298,-14.604792 -5.16871,-3.85471 -10.864048,-6.10647 -17.032558,-6.73394 -4.48875,-0.4566 -8.31067,0.17191 -12.22199,2.00917 -9.875777,5.7552 -16.763247,14.591402 -13.284457,26.023732 1.66326,5.04847 4.25161,8.02188 7.935427,9.11572 2.65213,0.78748 5.18528,0.35755 5.7459,-0.97513 0.19605,-0.46606 0.26416,-2.24487 0.11989,-3.13004 -0.0149,-0.0915 -0.38248,-0.31353 -0.817,-0.49352 -1.20621,-0.49961 -3.52762,-2.89171 -4.19303,-4.32066 -3.545467,-7.61382 1.65729,-17.758892 9.87795,-19.261362 6.02513,-1.1012 12.31059,2.41933 15.35049,8.597412 1.62543,3.30342 2.01505,6.49363 1.43144,11.72745 -1.18535,10.63029 -5.92241,17.70185 -13.29945,19.85305 -2.31092,0.67387 -5.6841,0.8335 -9.8857,0.46819 -2.56322,-0.22284 -8.398767,-1.77506 -10.565767,-2.81068 -6.61033,-3.15915 -13.0399101,-15.10983 -13.5066701,-25.10493 -0.33722,-7.2214 1.85002,-17.924462 4.9495701,-24.220212 2.61237,-5.30622 7.48175,-10.06385 13.355257,-13.04882 3.15003,-1.60088 5.10615,-1.97907 9.26041,-1.79111 13.03092,0.5896 21.468178,5.3182 25.549348,14.31903 0.97287,2.14562 1.99141,5.87136 2.24017,8.19432 0.10546,0.98471 0.31526,1.74031 0.48576,1.75131 1.32615,0.0856 4.32666,-0.10282 4.68396,-0.29404 0.38339,-0.20518 0.46087,-0.93741 0.57981,-5.47097 0.0971,-3.70269 0.33827,-6.5505 0.82372,-9.73222 1.43789,-9.42421 2.01744,-13.41978 2.01744,-13.90768 0,-0.74986 -1.89962,-1.89219 -3.38015,-2.03295 -0.27687,-0.0263 -0.50275,-0.0402 -0.70435,-0.0331 z"
       style="fill:#808000;stroke-width:0.264583"
       id="path939-72-9" />
    <path
       id="path939-6"
       style="fill:#000000;stroke-width:0.264583"
       d="m 2.2007049,40.865838 c -3.68038,-0.008 -8.05577,0.30188 -11.31765,0.87591 -11.4472199,2.01449 -19.8401299,6.0983 -26.9952499,13.13563 -5.3338,5.246 -9.40984,11.68139 -12.26644,19.3673 -2.26364,6.09051 -3.14828,11.1566 -3.17965,18.20354 -0.026,5.83579 0.32318,8.986402 1.58234,14.276132 2.06565,8.6778 6.14006,15.92265 12.92272,22.97844 8.98116,9.34282 19.05945,14.89607 28.8623199,15.90342 2.98248,0.30649 10.99826,0.31911 13.36146,0.0212 1.09141,-0.13758 3.25298,-0.5615 4.80384,-0.94205 3.4084601,-0.83637 3.7829701,-1.29895 1.9290801,-2.38539 -2.6540501,-1.55538 -6.9715101,-2.87606 -14.6161601,-4.47104 -2.51672,-0.52509 -5.59256,-1.2491 -6.83524,-1.60921 -2.6961099,-0.7813 -6.3832799,-2.17738 -6.5763499,-2.48977 -0.0758,-0.1227 0.72589,-0.3749 1.78129,-0.56069 1.55743,-0.27417 2.31749,-0.59923 4.03541,-1.72547 1.1641699,-0.76321 2.4416299,-1.72754 2.8391099,-2.14303 l 0.72295,-0.75551 -3.5951299,-5.67924 c -1.97726,-3.12355 -4.06258,-6.56593 -4.63434,-7.64966 -1.09432,-2.07422 -2.97679,-7.24332 -2.81482,-7.72924 0.0523,-0.1568 0.38766,0.14513 0.74569,0.67076 0.65184,0.95695 1.41532,1.24934 1.64021,0.62839 0.20027,-0.55298 -0.0507,-3.02681 -0.75861,-7.47448 -1.17271,-7.368322 -1.20201,-7.680942 -0.9126,-9.761682 0.3248,-2.3352 0.84841,-3.97584 1.95182,-6.11332 1.12447,-2.17827 6.0407299,-6.9679 10.4556899,-10.18646 3.95172998,-2.88085 4.29720998,-3.46389 2.36368,-3.98994 -4.89625,-1.3321 -8.0134699,-1.53804 -15.5892299,-1.02991 -10.36165,0.69498 -16.18799,2.16692 -20.99045,5.302 -3.58644,2.34126 -6.23087,5.49868 -7.97367,9.52035 -0.99624,2.29888 -1.93115,6.28006 -1.95389,8.32146 -0.0144,1.29126 -0.0233,1.30664 -0.3886,0.63458 -0.30228,-0.5561 -0.32536,-1.16288 -0.11938,-3.15381 0.43884,-4.24169 1.55862,-10.26141 2.40347,-12.91963 2.44767,-7.70123 8.35943,-15.97769 16.36438,-22.91074 6.81358,-5.90121 12.961,-8.79505 19.73575,-9.28987 5.9698399,-0.43602 10.71407988,2.42682 10.77555988,6.50193 0.0411,2.7221 -2.02615998,4.28467 -4.51857998,3.41581 -1.04482,-0.36423 -1.13443,-0.64592 -0.84853,-2.66857 0.15423,-1.09111 0.1436,-1.76709 -0.0305,-1.94097 -0.15573,-0.15555 -1.88809,-0.265 -4.15582,-0.262 -3.6832199,0.005 -4.0182799,0.0496 -6.3226099,0.85008 -4.7931,1.66501 -10.14851,4.78628 -15.91479,9.27488 -7.32257,5.70005 -11.74056,10.7766 -12.78372,14.68954 -0.28978,1.087 -0.28239,1.30662 0.0506,1.51723 0.21418,0.13545 0.44918,0.24811 0.52194,0.25011 0.0728,0.002 1.01779,-1.07442 2.10013,-2.3921 1.08233,-1.31767 3.52842,-3.9074 5.43584,-5.75469 10.71906,-10.38112 19.62329,-15.86291 24.88375,-15.32 1.8398799,0.1899 2.5052799,0.56499 2.5052799,1.41232 0,0.65465 -0.0414,0.67142 -1.2567799,0.51005 -1.6673,-0.2214 -2.96096,0.45239 -3.47989,1.81281 -0.34269,0.89839 -0.32308,1.07426 0.25787,2.31459 0.8272,1.76612 3.38914,4.11897 7.4796499,6.86986 3.66032,2.4616 6.02980998,3.67187 7.19129,3.67213 0.8809,2.3e-4 4.09536,-1.76703 4.09536,-2.25154 0,-0.16617 -0.31131,-1.18613 -0.69195,-2.26653 -1.3426,-3.81081 -1.11174,-6.36349 0.88211,-9.74721 1.34194,-2.27735 4.34548,-5.32796 6.1598401,-6.25647 1.90784,-0.97636 5.67738,-1.21798 8.09976,-0.51883 5.126189,1.47953 7.572588,4.74091 8.994797,11.98997 0.112742,0.57467 0.220165,0.60266 2.029336,0.52917 l 1.910477,-0.0775 0.132291,-1.05833 c 0.0887,-0.70966 0.206314,-0.94353 0.357085,-0.71004 0.468709,0.72584 2.398752,1.90066 3.122292,1.90066 1.15649,0 0.96464,-0.79697 -0.68368,-2.83962 -0.79075,-0.97992 -1.37663,-1.84281 -1.30173,-1.91771 0.075,-0.0749 1.17326,0.96471 2.44068,2.31045 1.94486,2.06504 2.43261,2.44688 3.12539,2.44688 0.4654,0 0.88352,-0.16296 0.96532,-0.3762 0.4951,-1.2902 -5.59776,-7.53266 -10.538898,-10.79779 -7.12511,-4.7083 -15.57605,-8.31971 -22.4895801,-9.61079 -1.31705,-0.24595 -3.27516,-0.36553 -5.48339,-0.37052 z m 15.0843601,9.81542 c -0.2666,0.006 -0.55356,0.0213 -0.86972,0.0429 -3.74932,0.25611 -6.09604,1.31491 -7.7618001,3.50211 -1.1943,1.56815 -1.63116,3.18843 -1.63091,6.05079 1.8e-4,2.10507 0.0959,2.60829 0.76791,4.0287 0.42231,0.89266 0.92844,1.68255 1.12448,1.75545 0.41003,0.15239 1.01541,-0.5065 1.02371,-1.11415 0.003,-0.22685 -0.19709,-1.61831 -0.44493,-3.09232 -0.42648,-2.53633 -0.4263,-2.74474 0.009,-3.884 0.6145601,-1.6092 2.0329201,-3.42297 3.2277101,-4.12791 0.5355,-0.31596 1.02856,-0.51915 1.09605,-0.45165 0.0675,0.0675 -0.38805,0.87489 -1.01234,1.7942 -1.39896,2.06006 -1.79631,3.1341 -1.81126,4.89738 -0.0136,1.60094 0.71895,2.6834 2.39262,3.53725 1.65395,0.84378 2.64623,0.62005 4.73977,-1.06918 1.72106,-1.3887 1.66702,-1.3762 3.29437,-0.75345 1.80487,0.69068 2.26937,0.46148 1.72547,-0.85162 -0.407,-0.98258 -1.19023,-1.7855 -2.08152,-2.13321 -0.79323,-0.30947 -1.97784,0.0617 -4.02301,1.26039 -0.835,0.48938 -1.76149,0.88987 -2.05931,0.88987 -1.25484,0 -1.49399,-2.38903 -0.37259,-3.72174 1.02224,-1.21487 2.53038,-1.82183 4.54391,-1.82883 3.42339,-0.0118 4.69901,0.79842 5.781561,3.67213 0.789151,2.09486 1.716254,3.10069 2.559534,2.77709 0.403971,-0.15503 0.452803,-0.37948 0.312642,-1.43608 -0.48727,-3.67325 -1.438505,-5.09634 -5.012097,-7.49877 -2.79141,-1.87662 -3.65284,-2.2876 -5.51904,-2.24534 z m 16.457908,21.4607 c -0.926088,-0.14319 -1.754581,1.99161 -2.523365,6.48643 -0.692568,4.04926 -1.476295,6.21199 -2.306836,6.3655 -0.447317,0.0827 -3.671456,-2.01829 -4.058666,-2.6448 -0.10641,-0.1722 -0.06963,-0.22942 0.08578,-0.13332 0.36949,0.22834 3.562088,-1.07382 3.988387,-1.62678 0.188079,-0.24395 0.307083,-0.74142 0.264583,-1.10536 -0.1584,-1.35488 -3.188676,-1.68237 -7.379391,-0.79788 -1.36816,0.28876 -2.80338,0.52716 -3.18896,0.52916 -0.51231,0.003 -1.07194,0.40977 -2.07842,1.51102 -2.29317,2.50909 -2.26965,2.43569 -1.36064,4.23644 1.50411,2.97962 2.15684,5.49468 2.14664,8.27236 -0.0208,5.63383 -1.16467,8.146392 -6.05958,13.312882 -3.2087601,3.38679 -3.4541801,3.7186 -3.4251101,4.63021 0.0807,2.53097 0.65538,3.17942 2.02261,2.28358 0.6810501,-0.44624 0.6762601,-0.42586 -0.14521,0.61134 -0.95601,1.20705 -1.01229,1.55176 -0.46664,2.8577 0.54627,1.3074 1.2754001,1.22562 1.8396801,-0.2067 0.26078,-0.66194 1.3636,-2.10198 2.68149,-3.50108 2.38218,-2.52896 2.70522,-3.32241 1.85002,-4.54339 0.40038,-3.92417 1.98536,-5.98502 3.98839,-10.600392 0.23429,-0.54025 0.36948,-1.81493 0.36948,-3.48868 v -2.63808 l 0.88987,0.1447 c 1.33837,0.21718 1.72914,-0.8817 1.08727,-3.79977 -0.18796,-0.79228 -0.33265,-1.49863 -0.94154,-2.05672 -0.0989,-0.0907 -0.55025,-0.46239 -1.29295,-0.88832 -0.76398,-0.43814 -2.1239,-1.51878 -2.1239,-1.68672 0,-0.16795 0.26789,-0.0601 0.59531,0.23926 0.32742,0.29939 0.98227,0.73971 1.45521,0.97875 0.61371,0.31685 1.16614,0.69132 1.81023,0.99271 0.47133,0.22056 4.838698,2.01763 6.637317,3.14089 0.436042,0.27231 1.203934,0.0851 4.928384,-1.20096 2.426617,-0.83793 4.605257,-1.66469 4.841047,-1.8371 0.39421,-0.28824 0.39276,-0.34932 -0.0165,-0.75861 -0.34374,-0.34374 -0.9381,-0.44606 -2.60915,-0.44907 -2.647321,-0.005 -2.865176,-0.1169 -2.578138,-1.32549 2.027088,-8.53503 2.279748,-10.43606 1.475888,-11.1032 -0.1364,-0.1132 -0.27026,-0.18005 -0.40256,-0.20051 z m 6.04666,0.46251 c -0.60744,0 -0.63439,0.73347 -0.0946,2.55126 0.68234,2.29766 1.45463,6.43079 1.63142,8.73073 0.16892,2.19759 0.1777,2.21881 0.99116,2.45773 1.57172,0.46165 1.60718,0.40571 1.68878,-2.65151 0.0684,-2.56279 0.005,-2.99289 -0.75757,-5.15628 -1.42665,-4.04603 -2.52657,-5.93193 -3.45922,-5.93193 z m -12.038545,0.26458 c -0.64923,0 -3.054006,1.33506 -5.382613,2.98793 -2.83937,2.0154 -2.74562,1.92679 -2.55695,2.41846 0.24484,0.63806 0.71392,0.51839 3.56102,-0.90692 3.070887,-1.53734 5.537211,-3.55379 5.056021,-4.1336 -0.16714,-0.20138 -0.472178,-0.36587 -0.677478,-0.36587 z m -37.5460331,1.99471 c 0.16693,0.008 0.29998,0.028 0.39326,0.0625 0.597,0.22085 0.57248,0.26018 -0.59634,0.94516 -4.1204099,2.41471 -7.7820099,7.64712 -9.1508699,13.0762 -0.28363,1.12492 -0.55437,2.40255 -0.60151,2.83911 -0.0847,0.78418 -0.0883,0.78577 -0.27905,0.13229 -0.10617,-0.3638 -0.19427,-0.90323 -0.19637,-1.19838 -0.006,-0.87513 -1.73472,-4.22274 -2.77606,-5.37538 -0.53129,-0.58807 -1.494,-1.37825 -2.1394,-1.75648 -0.64541,-0.37824 -1.17358,-0.82518 -1.17358,-0.99271 0,-0.16753 0.62508,-0.90724 1.38907,-1.64382 1.46873,-1.41605 5.56727,-3.6192 8.89609,-4.78214 2.2513,-0.7865 5.06628,-1.36017 6.2347599,-1.30638 z m 57.0213281,0.43305 c -0.30916,-0.0116 -0.51625,0.22433 -0.51625,0.75706 0,0.97438 2.15524,9.12103 2.95486,11.16883 0.30718,0.78667 0.42166,0.84268 0.98702,0.48472 0.83698,-0.52993 -0.24315,-8.02338 -1.51618,-10.5177 -0.59549,-1.16677 -1.39418,-1.87358 -1.90945,-1.89291 z m -82.272498,7.50858 c 2.41658,0.0127 3.01916,0.11207 4.63021,0.76326 5.19213,2.09867 8.60256,6.43716 8.64547,10.99778 0.0241,2.56412 -0.25169,3.87029 -1.27021,6.014622 -1.46443,3.08312 -4.68301,5.96282 -7.90856,7.07606 -0.72534,0.25034 -2.27128,0.5 -3.43545,0.555 -3.58682,0.16941 -6.32704,-0.84304 -8.82478,-3.26078 -0.33294,-0.32227 -1.56061,-1.44644 -1.78232,-1.70843 -0.49929,-0.75809 -0.90057,-1.90354 -1.11673,-2.55384 -0.21616,-0.6503 -0.57911,-1.635222 -0.71365,-2.770902 -0.0865,-0.64185 -0.0548,-1.63348 -0.0548,-1.63348 0.002,-0.30332 0.0277,-0.72399 0.0816,-1.14671 l 0.1695,-1.18907 c -0.004,-1.29105 1.37093,-4.35071 2.4231,-5.90145 1.20975,-1.78298 3.36635,-3.7773 4.8979,-4.52944 1.33824,-0.65719 1.74762,-0.72582 4.25865,-0.71262 z m 0.6072,1.1157 c -1.74943,0.004 -3.51712,0.3875 -5.06842,1.14877 -3.10675,1.52456 -6.31846,4.92904 -6.83576,8.3044 -0.13627,1.19886 -0.30472,2.39944 -0.28474,3.60908 0.0203,0.70982 0.0215,0.98505 0.21136,1.81488 0.18981,0.82983 0.69726,2.428882 1.07487,3.099552 0.37761,0.67066 0.709,1.66677 1.90376,2.66857 1.19475,1.00181 4.43656,2.65999 8.57312,2.74918 2.32255,0.0501 2.759,-0.0186 4.13359,-0.65112 4.8214,-2.21862 8.04825,-9.170582 6.69882,-14.431682 -0.76509,-2.98288 -3.00919,-5.94361 -5.44876,-7.18819 -1.47708,-0.75357 -3.20841,-1.12789 -4.95784,-1.12344 z m -0.0434,3.76463 c 3.20067,0 5.80904,1.64317 7.45123,4.69377 1.03768,1.92764 1.17,3.50527 0.4687,5.5795 -0.9626,2.847072 -2.43593,4.860312 -4.40903,6.023922 -0.90849,0.53576 -1.48876,0.64994 -3.57188,0.70384 -2.09488,0.0542 -2.68541,-0.0277 -3.74395,-0.51884 -0.69123,-0.32072 -1.25678,-0.63216 -1.25678,-0.69246 0,-0.0604 0.68461,0.05 1.52136,0.24546 0.83674,0.19548 2.37416,0.43377 3.41684,0.52917 1.63493,0.14961 2.06194,0.0927 3.10111,-0.41031 1.39879,-0.67714 2.67602,-2.28094 3.90208,-4.900992 0.7622,-1.62879 0.81909,-1.93704 0.68575,-3.70004 -0.3316,-4.38457 -3.10992,-7.02386 -7.39335,-7.02386 -1.75397,0 -3.27584,0.63578 -4.13463,1.72754 -1.53021,1.94535 -1.80683,5.29035 -0.54828,6.63009 0.70569,0.75123 1.63899,0.77011 3.89226,0.078 1.32102,-0.40573 1.73382,-0.2353 2.63447,1.08727 1.01768,1.49443 0.71679,3.091702 -0.72244,3.835952 -0.95921,0.49604 -3.18022,0.51784 -4.31343,0.0424 -1.26561,-0.53102 -2.75916,-2.203972 -3.67729,-4.118092 -0.7293,-1.52043 -0.79798,-1.87062 -0.65836,-3.36569 0.41153,-4.40702 2.73888,-6.44663 7.35562,-6.44663 z m 46.38477,0.79375 c -0.53669,0 -0.58445,0.19564 -0.89039,3.63802 -0.37966,4.27179 -0.71987,5.63394 -2.1414701,8.573632 -1.07511,2.2232 -1.33936,3.80192 -0.73691,4.40439 0.47946,0.47945 0.6109,0.41417 1.73375,-0.86145 2.1089201,-2.39586 4.0343801,-7.088652 4.0343801,-9.832472 0,-0.93974 -0.27506,-2.36911 -0.71624,-3.72381 -0.60204,-1.84865 -0.80621,-2.19831 -1.28312,-2.19831 z m -45.81478,2.20968 c 1.51432,0.0646 2.86704,1.20598 3.82974,3.29747 0.35595,0.77331 0.5943,1.45829 0.5302,1.52239 -0.0641,0.0641 -0.871,-0.37085 -1.79317,-0.96686 -2.19852,-1.42098 -3.08302,-1.563 -4.15013,-0.66508 -0.44952,0.37824 -1.12771,0.68781 -1.50689,0.68781 -0.62269,0 -0.68936,-0.0981 -0.68936,-1.01234 0,-1.17149 0.63135,-1.90091 2.22002,-2.5647 0.53235,-0.22243 1.05482,-0.32023 1.55959,-0.29869 z m 73.459088,7.32565 c -0.34441,-0.001 -0.7523,0.0139 -1.26298,0.0388 -1.7549,0.0854 -2.64802,0.27637 -3.82612,0.81752 -3.54277,1.627342 -7.062101,6.903342 -7.062101,10.587472 0,0.8797 0.206084,1.26452 1.341003,2.5063 1.728079,1.89078 3.252399,4.14555 4.304131,6.36551 0.763677,1.61191 0.835357,1.98717 0.818557,4.28036 -0.0333,4.55376 -1.188114,6.73822 -5.372285,10.1601 -1.16549,0.95315 -1.877962,1.72586 -1.829864,1.98437 0.04328,0.23286 0.494668,0.63704 1.003557,0.89866 1.2607,0.64813 2.44181,0.42387 4.2261,-0.80254 2.239532,-1.53933 6.836222,-7.24852 11.133172,-13.82758 6.08586,-9.31808 8.24798,-14.91206 6.58203,-17.02996 -0.82094,-1.04367 -1.39969,-0.57799 -1.7725,1.42678 -0.78808,4.2377 -3.23704,6.74529 -7.08846,7.25795 -1.82625,0.24307 -3.24531,-0.35999 -4.72994,-2.01124 -1.39376,-1.5502 -2.07722,-3.37607 -1.87276,-5.00331 0.20652,-1.64367 0.68241,-2.21308 2.84737,-3.40858 l 1.91668,-1.05834 1.05988,1.01028 c 1.31646,1.25562 2.24295,1.88257 2.78278,1.88257 0.5846,0 1.92054,-2.79548 1.68724,-3.53053 -0.23245,-0.732372 -0.70757,-1.109502 -2.4443,-1.940452 -0.94666,-0.45298 -1.40798,-0.60059 -2.44119,-0.6041 z m -87.648398,5.039492 c 0.0533,-0.0151 0.0909,0.0369 0.0909,0.14056 0,0.13825 1.49693,2.74753 3.32641,5.79861 3.60669,6.01497 6.62712,11.8562 7.52254,14.54691 0.31074,0.93378 0.52713,2.01425 0.48059,2.40141 -0.0828,0.68861 -0.10858,0.67583 -1.16582,-0.58601 -3.05155,-3.64211 -6.48757,-9.754 -8.42533,-14.98668 -1.02633,-2.7715 -2.13139,-7.03292 -1.88722,-7.27708 0.0205,-0.0204 0.0401,-0.0327 0.0579,-0.0377 z m 76.163822,9.78906 c -0.236765,-0.004 -0.454866,0.11901 -0.661458,0.36794 -0.260379,0.31374 -0.227462,0.51287 0.166399,1.01647 0.26946,0.34453 1.18428,1.54536 2.03295,2.66806 1.55357,2.0552 2.078223,2.33993 2.647384,1.43609 0.222681,-0.35364 0.05166,-0.72543 -0.852662,-1.85209 -0.62229,-0.7753 -1.502048,-1.91575 -1.954919,-2.53421 -0.535887,-0.73184 -0.983084,-1.09487 -1.377694,-1.10226 z m -12.552722,1.79421 c -0.37374,-0.004 -0.79597,0.4311 -1.34875,1.23455 -3.24816,4.72103 -3.0393,8.88004 0.64182,12.78216 1.0877,1.153 1.72665,1.5304 3.20032,1.88981 0.86379,0.21067 1.75515,0.13045 3.52898,-0.31729 1.19728,-0.30221 4.011643,-2.58469 4.011643,-3.25355 0,-0.1907 -0.528259,-0.60255 -1.174088,-0.91519 l -1.174605,-0.56844 -1.36891,0.94206 c -2.01512,1.38616 -3.78379,1.21993 -5.99912,-0.56379 -1.53224,-1.23372 -1.84654,-2.4267 -1.22421,-4.64468 l 0.45992,-1.63969 0.44958,1.78129 c 0.24726,0.97972 0.6316,2.05907 0.85421,2.39882 0.59813,0.91287 1.87306,1.36162 3.04478,1.07125 1.43145,-0.35472 1.39297,-0.9859 -0.15864,-2.58692 -1.16093,-1.19789 -1.38452,-1.62088 -1.90532,-3.60598 -0.72727,-2.77211 -1.21471,-3.99794 -1.83761,-4.00441 z m -43.86967,1.95285 c 1.23746,0.007 2.32265,0.43646 3.14761,1.26142 0.62788,0.62789 0.74982,0.96946 0.74982,2.10478 0,1.0919 -0.12842,1.48338 -0.6599,2.01487 -0.72582,0.72581 -0.8227,0.70458 -2.8205,-0.61237 -0.83435,-0.55001 -1.04143,-0.59048 -1.51361,-0.29559 -1.17547,0.73408 -1.35226,2.60644 -0.4501,4.7656 1.17981,2.82367 7.2595,8.81698 11.67112,11.50524 4.51419,2.75077 15.5373399,5.56544 22.2053699,5.66994 0.73313,0.0115 1.21419,0.07 1.06866,0.12971 -0.93575,0.38412 -3.7481,0.47746 -5.95312002,0.1974 -1.38244998,-0.17558 -3.88275998,-0.44135 -5.55624998,-0.59066 -3.9942899,-0.35637 -7.2193999,-1.17668 -11.2447899,-2.85977 -8.82913,-3.69161 -13.75676,-7.83938 -15.48794,-13.03693 -0.46939,-1.40939 -0.55424,-2.17345 -0.47078,-4.23333 0.15368,-3.79308 1.17598,-5.28623 4.03025,-5.88492 0.44231,-0.0928 0.87167,-0.13761 1.28416,-0.13539 z m 11.40447,0.55501 3.28145,4.91546 c 1.80483,2.70353 3.32723,4.98811 3.38326,5.07721 0.056,0.0891 -1.05615,0.43965 -2.47117,0.77876 -1.41501,0.33912 -3.32327,0.88748 -4.24108,1.21853 l -1.66915,0.60203 0.18758,-0.58704 c 0.71707,-2.24356 0.9595,-3.74958 1.22629,-7.61866 z m 48.471457,9.28522 c -0.14202,0.011 -0.308896,0.0578 -0.519864,0.13797 -0.398478,0.1515 -1.196364,0.27544 -1.773534,0.27544 -0.77054,0 -1.086294,0.12304 -1.187524,0.46302 -0.623281,2.09336 -2.532454,4.29513 -4.674135,5.39037 -1.2875,0.65838 -1.27633,0.97385 0.0662,1.87637 1.36624,0.91849 2.084375,0.56993 4.993495,-2.42311 0.927389,-0.95414 2.224066,-2.48781 2.881477,-3.40806 1.05062,-1.47068 1.148416,-1.72014 0.807185,-2.06137 -0.188404,-0.18841 -0.356542,-0.26898 -0.593246,-0.25063 z"
       sodipodi:nodetypes="sssssssssssssssscccsssssssssssssssssssssscsssscsssssssssssssssccssssssscsssscssscssssssssssssssscsssssccsscscscsscsssssssssccccsssscssssscsssssssssssssssssssssscsssssssssssscsscssscsccccsssssccsssssssssssssssssssssssssssssssssccssssssssssssssssssssssssssssscccssssssssssssscssssscssscccsssssccssssssssssssssscssscssscscssccssssssssssscsssssssss" />
    <path
       inkscape:connector-curvature="0"
       d="m 143.50522,87.362328 c -0.98973,-0.004 -2.29578,0.95753 -3.15226,2.32027 -1.65758,2.63733 -3.31745,6.06038 -3.1502,6.49624 0.1549,0.40365 1.27601,0.44132 13.15786,0.44132 h 12.98835 l -2.19832,1.49603 c -11.82843,8.048272 -17.78658,17.040892 -17.32762,26.152932 0.16042,3.18492 0.69826,5.35962 2.04277,8.26254 2.7231,5.87938 7.82202,9.87437 14.6265,11.45977 1.82277,0.42472 2.95698,0.49001 7.19129,0.41341 4.36971,-0.0791 5.36393,-0.18012 7.60367,-0.77101 4.11607,-1.08591 7.48461,-3.13209 9.84746,-5.98155 1.42605,-1.71974 1.80782,-2.53887 1.35702,-2.913 -0.27645,-0.22943 -0.70276,-0.1107 -1.83761,0.51211 -2.10185,1.15351 -6.33231,2.89588 -8.50388,3.50212 -2.57719,0.71948 -6.63966,0.88541 -9.06456,0.37052 -6.46777,-1.37335 -11.31577,-6.25336 -12.65762,-12.74186 -0.59238,-2.86442 -0.39201,-8.18068 0.41289,-10.96264 1.16884,-4.03982 3.98612,-8.49493 7.80624,-12.34447 3.31615,-3.341702 5.95152,-4.962852 9.65006,-5.936592 1.7611,-0.46365 2.87557,-0.51831 10.59832,-0.51831 h 8.63048 l 0.88005,-1.82004 c 0.4842,-1.00093 0.79801,-1.95343 0.69711,-2.11667 -0.13256,-0.21453 -5.14938,-0.29834 -18.09346,-0.30334 -9.85044,-0.004 -19.10014,-0.12131 -20.55534,-0.26097 -3.39634,-0.32596 -5.00141,-0.9422 -7.9375,-3.04736 -1.32215,-0.94798 -2.66179,-1.70845 -3.0117,-1.70945 z"
       style="fill:#808000;stroke-width:0.264583"
       id="path939-7-6" />
    <g
       aria-label="reenhill"
       id="text1202"
       style="font-size:21.1666px;line-height:1.25;font-family:'Apple Chancery';-inkscape-font-specification:'Apple Chancery';stroke-width:0.529165">
      <path
         d="m 70.852636,135.5019 q 3.162587,-4.35114 5.384667,-4.35114 0.578774,0 1.105872,0.26871 l -1.777664,1.59163 q -0.289387,-0.18603 -0.806149,-0.18603 -1.074867,0 -2.61482,1.74666 -1.539952,1.73632 -2.129062,3.61734 l -0.785479,2.5218 -1.63297,0.51676 0.09302,-0.31006 0.206705,-0.67179 0.217041,-0.67179 1.529617,-4.91958 0.165364,-0.53743 q 0.19637,-0.60978 0.268717,-0.99219 0.124023,-0.63045 -0.227376,-0.63045 -0.82682,0 -1.994704,1.76733 -0.21704,-0.19637 -0.165364,-0.40308 0.155029,-0.63045 1.477941,-1.66397 1.333248,-1.04386 1.984369,-1.04386 0.878497,0 0.651121,1.15755 -0.05168,0.27905 -0.206705,0.75447 l -0.21704,0.72347 -0.258382,0.86816 z"
         style="font-style:italic"
         id="path199" />
      <path
         d="m 81.79767,137.75498 q 0.21704,0.1757 0.175699,0.41341 -0.07235,0.3204 -0.888832,1.09554 -2.170403,2.04638 -3.89639,2.04638 -1.054196,0 -1.570959,-0.83715 -0.516762,-0.83716 -0.258381,-2.1394 0.475422,-2.35644 2.738842,-4.76455 2.263421,-2.41845 4.010078,-2.41845 1.260901,0 0.992185,1.35392 -0.299723,1.51928 -2.067051,2.96621 -1.756993,1.44694 -3.989408,2.01538 -0.289387,2.49079 1.467606,2.49079 1.736323,0 3.286611,-2.22208 z m -4.46483,-1.52961 q 0.279052,0.10335 0.527098,0.10335 1.281572,0 2.397779,-0.78548 1.126543,-0.78548 1.333248,-1.83967 0.237711,-1.20923 -0.992185,-1.20923 -0.888831,0 -1.819004,1.06453 -0.930173,1.0542 -1.446936,2.6665 z"
         style="font-style:italic"
         id="path201" />
      <path
         d="m 89.642127,137.75498 q 0.21704,0.1757 0.175699,0.41341 -0.07235,0.3204 -0.888832,1.09554 -2.170403,2.04638 -3.896391,2.04638 -1.054195,0 -1.570958,-0.83715 -0.516763,-0.83716 -0.258381,-2.1394 0.475421,-2.35644 2.738842,-4.76455 2.26342,-2.41845 4.010078,-2.41845 1.260901,0 0.992184,1.35392 -0.299722,1.51928 -2.06705,2.96621 -1.756993,1.44694 -3.989408,2.01538 -0.289387,2.49079 1.467606,2.49079 1.736323,0 3.286611,-2.22208 z m -4.46483,-1.52961 q 0.279052,0.10335 0.527098,0.10335 1.281571,0 2.397779,-0.78548 1.126542,-0.78548 1.333247,-1.83967 0.237711,-1.20923 -0.992184,-1.20923 -0.888832,0 -1.819004,1.06453 -0.930173,1.0542 -1.446936,2.6665 z"
         style="font-style:italic"
         id="path203" />
      <path
         d="m 93.414495,140.67986 -1.663976,0.63045 0.08268,-0.28939 0.237711,-0.7648 0.227376,-0.72347 1.498611,-4.79556 0.1757,-0.54777 q 0.186034,-0.64078 0.268716,-1.03352 0.124023,-0.66146 -0.206705,-0.66146 -0.775144,0 -2.015374,1.75699 -0.19637,-0.19637 -0.165364,-0.34106 0.124023,-0.62011 1.467606,-1.68465 1.343583,-1.07486 1.994704,-1.07486 0.888831,0 0.661456,1.13688 -0.05168,0.28938 -0.206705,0.77514 l -0.248046,0.83716 -0.217041,0.70279 -0.23771,0.73381 q 1.591629,-1.81901 3.276275,-2.99723 1.684649,-1.18855 2.707839,-1.18855 1.00252,0 0.72347,1.39526 -0.0827,0.42374 -0.36174,1.27123 l -1.33325,3.85505 q -0.392736,1.15755 -0.527094,1.82934 -0.113688,0.53744 0.175699,0.53744 0.713135,0 2.139395,-1.90169 0.21704,0.15503 0.18604,0.32039 -0.13436,0.67179 -1.50895,1.76733 -1.364254,1.0852 -2.087721,1.0852 -0.80615,0 -0.578775,-1.15755 0.1757,-0.84749 0.692462,-2.3461 l 0.857827,-2.50113 q 0.423745,-1.21956 0.558103,-1.93269 0.165364,-0.81649 -0.403075,-0.81649 -1.322912,0 -3.038564,1.79834 -1.715652,1.788 -2.356438,3.84471 z"
         style="font-style:italic"
         id="path205" />
      <path
         d="m 106.33356,135.33654 q 1.58129,-1.81901 3.26594,-2.99723 1.68465,-1.18855 2.71817,-1.18855 1.00252,0 0.72347,1.39526 -0.0827,0.41341 -0.37207,1.27123 l -1.32291,3.85505 q -0.39274,1.15755 -0.5271,1.82934 -0.11369,0.53744 0.1757,0.53744 0.71313,0 2.12906,-1.90169 0.22738,0.15503 0.19637,0.32039 -0.13436,0.67179 -1.50895,1.76733 -1.36425,1.0852 -2.08772,1.0852 -0.80615,0 -0.57877,-1.15755 0.1757,-0.84749 0.69246,-2.3461 l 0.84749,-2.50113 q 0.42375,-1.2299 0.56844,-1.95336 0.15503,-0.79582 -0.41341,-0.79582 -1.32291,0 -3.03856,1.79834 -1.70532,1.788 -2.35644,3.84471 l -0.76481,2.48046 -1.66398,0.63045 0.0827,-0.28939 0.23771,-0.7648 0.22737,-0.72347 2.81119,-9.05368 q 1.00252,-3.20393 3.47265,-5.46735 2.47012,-2.27376 4.96092,-2.27376 0.51676,0 0.98185,0.11369 l -1.81901,1.48828 q -0.54777,-0.1757 -1.07486,-0.1757 -3.06957,0 -4.56819,4.79555 z"
         style="font-style:italic"
         id="path207" />
      <path
         d="m 119.39732,138.03404 q 0.24805,0.16536 0.21704,0.32039 -0.0723,0.37207 -1.18855,1.46761 -1.50895,1.48827 -2.54247,1.48827 -0.75448,0 -0.55811,-1.00252 0.0827,-0.42374 0.83716,-2.60448 l 0.96118,-2.81119 0.24804,-0.71313 0.19637,-0.56844 q 0.12403,-0.36174 0.1757,-0.60978 0.10335,-0.51676 -0.18603,-0.51676 -0.80615,0 -2.09806,1.77766 -0.15503,-0.1757 -0.12402,-0.3514 0.12402,-0.63045 1.49861,-1.69498 1.37459,-1.06453 2.06705,-1.06453 0.77514,0 0.56844,1.07486 -0.0413,0.20671 -0.25838,0.84749 l -0.22738,0.69247 q -0.031,0.0827 -0.27905,0.83715 l -1.02319,2.95589 -0.22738,0.66145 q -0.33072,0.98185 -0.40307,1.31258 -0.0827,0.44441 0.1757,0.44441 0.86816,0 2.1704,-1.94302 z m -0.43408,-8.21653 1.30224,-2.1394 q 1.25057,-0.47542 2.16007,-1.31257 0.0724,0.14469 0.0413,0.29972 -0.27905,1.38492 -3.50365,3.15225 z"
         style="font-style:italic"
         id="path209" />
      <path
         d="m 132.71946,125.21832 q -0.93017,-0.47542 -1.97403,-0.47542 -2.09806,0 -3.24527,1.10587 -1.14721,1.10587 -1.9947,3.94807 l -0.48576,1.62263 -1.93269,6.19082 q -0.31006,1.00252 -0.39274,1.4366 -0.18604,0.93017 0.13436,0.93017 0.3824,0 1.01285,-0.60978 0.64079,-0.62011 1.03353,-1.36425 0.26871,0.14469 0.22737,0.37207 -0.15503,0.74414 -1.48828,1.83968 -1.32291,1.09553 -2.07738,1.09553 -0.85783,0 -0.60978,-1.24023 0.14469,-0.75447 0.40307,-1.53995 l 0.28939,-0.91984 1.92236,-6.19082 0.2067,-0.66145 q 0.97152,-3.20393 3.21427,-5.17796 2.25308,-1.97404 4.91958,-1.97404 1.2919,0 2.26342,0.45475 1.9637,-1.32291 3.67935,-1.32291 0.57877,0 0.97151,0.093 l -1.76733,1.49861 q -0.43408,-0.16536 -1.09553,-0.16536 -1.55029,0 -2.54248,1.09553 -0.99218,1.0852 -1.79833,3.68969 l -2.6975,8.66094 q -0.31006,1.00252 -0.40308,1.45727 -0.1757,0.9095 0.15503,0.9095 0.37207,0 1.01286,-0.62011 0.65112,-0.62012 1.02319,-1.35392 0.26871,0.14469 0.22737,0.37207 -0.15503,0.74414 -1.48827,1.83968 -1.32292,1.09553 -2.07739,1.09553 -0.84749,0 -0.59944,-1.2609 0.14469,-0.7338 0.39274,-1.51928 l 0.28938,-0.91984 2.25309,-7.19334 q 0.96118,-3.12124 3.03856,-5.19863 z"
         style="font-style:italic"
         id="path211" />
    </g>
    <g
       aria-label="ravellers"
       id="text10560"
       style="font-size:21.1666px;line-height:1.25;stroke-width:0.529166">
      <path
         d="m 191.83514,135.50187 q 3.16259,-4.35114 5.38467,-4.35114 0.57877,0 1.10587,0.26871 l -1.77766,1.59163 q -0.28939,-0.18603 -0.80615,-0.18603 -1.07487,0 -2.61482,1.74666 -1.53995,1.73632 -2.12906,3.61733 l -0.78548,2.52181 -1.63297,0.51676 0.093,-0.31006 0.20671,-0.67179 0.21704,-0.67179 1.52962,-4.91958 0.16536,-0.53743 q 0.19637,-0.60978 0.26872,-0.99219 0.12402,-0.63045 -0.22738,-0.63045 -0.82682,0 -1.9947,1.76733 -0.21704,-0.19637 -0.16537,-0.40308 0.15503,-0.63045 1.47795,-1.66397 1.33324,-1.04386 1.98436,-1.04386 0.8785,0 0.65112,1.15755 -0.0517,0.27905 -0.2067,0.75447 l -0.21704,0.72347 -0.25838,0.86816 z"
         style="font-style:italic;font-family:'Apple Chancery';-inkscape-font-specification:'Apple Chancery'"
         id="path232" />
      <path
         d="m 203.0799,136.93847 q -1.55029,1.92236 -3.1936,3.15225 -1.6433,1.21956 -2.67683,1.21956 -1.41593,0 -0.96117,-2.28409 0.63045,-3.14192 3.15225,-5.43634 2.5218,-2.30476 5.34332,-2.30476 1.07487,0 1.77767,0.26871 -0.093,0.18604 -0.11369,0.22738 l -0.22738,0.54777 q -0.23771,0.56844 -0.26871,0.66145 l -1.5813,4.56818 -0.21704,0.66146 q -0.33072,0.98185 -0.40307,1.31258 -0.0827,0.44441 0.1757,0.44441 0.86816,0 2.16007,-1.94302 0.24804,0.16536 0.21704,0.33072 -0.0724,0.36174 -1.17822,1.45728 -1.50895,1.48827 -2.54248,1.48827 -0.75447,0 -0.5581,-1.01285 0.062,-0.31006 0.24805,-0.85783 l 0.26871,-0.82682 0.3204,-0.9095 z m 1.41593,-4.1031 q -0.83716,-0.52709 -1.79834,-0.52709 -1.44693,0 -2.78018,1.76732 -1.33325,1.76733 -1.86035,4.38215 -0.26871,1.34358 0.5271,1.34358 0.91984,0 2.50113,-1.40559 2.1394,-1.89135 3.0179,-4.44416 z"
         style="font-style:italic;font-family:'Apple Chancery';-inkscape-font-specification:'Apple Chancery'"
         id="path234" />
      <path
         d="m 211.78218,139.01586 q 3.68969,-4.03075 4.01008,-5.61205 0.11369,-0.58911 -0.41341,-0.93017 l 1.55029,-1.32291 q 0.68212,0.3824 0.51676,1.21956 -0.2067,1.03352 -2.78018,4.02041 -0.55811,0.64079 -0.79582,0.93017 l -0.3514,0.44442 -0.62011,0.75447 q -0.51676,0.62012 -1.10587,1.39526 l -1.71566,1.39526 q 0.26872,-3.32795 -0.0827,-6.03579 -0.34106,-2.70783 -1.04386,-2.70783 -0.78548,0 -1.40559,1.56062 -0.27905,-0.10335 -0.23771,-0.34106 0.16536,-0.78548 1.02319,-1.69498 0.85782,-0.90951 1.45727,-0.94051 2.27375,-0.11369 1.9947,7.86513 z"
         style="font-style:italic;font-family:'Apple Chancery';-inkscape-font-specification:'Apple Chancery'"
         id="path236" />
      <path
         d="m 223.1923,137.75495 q 0.21704,0.1757 0.1757,0.41341 -0.0724,0.3204 -0.88883,1.09554 -2.1704,2.04638 -3.89639,2.04638 -1.0542,0 -1.57096,-0.83715 -0.51676,-0.83716 -0.25838,-2.1394 0.47542,-2.35644 2.73884,-4.76455 2.26342,-2.41845 4.01008,-2.41845 1.2609,0 0.99218,1.35392 -0.29972,1.51928 -2.06705,2.96621 -1.75699,1.44694 -3.98941,2.01538 -0.28938,2.49079 1.46761,2.49079 1.73632,0 3.28661,-2.22208 z m -4.46483,-1.52961 q 0.27905,0.10335 0.5271,0.10335 1.28157,0 2.39778,-0.78548 1.12654,-0.78548 1.33325,-1.83968 0.23771,-1.20922 -0.99219,-1.20922 -0.88883,0 -1.819,1.06453 -0.93018,1.0542 -1.44694,2.6665 z"
         style="font-style:italic;font-family:'Apple Chancery';-inkscape-font-specification:'Apple Chancery'"
         id="path238" />
      <path
         d="m 236.75215,125.21829 q -0.93017,-0.47542 -1.97403,-0.47542 -2.09806,0 -3.24527,1.10587 -1.14721,1.10587 -1.9947,3.94807 l -0.48576,1.62263 -1.93269,6.19082 q -0.31006,1.00252 -0.39274,1.4366 -0.18604,0.93017 0.13436,0.93017 0.3824,0 1.01285,-0.60978 0.64079,-0.62011 1.03353,-1.36425 0.26871,0.14469 0.22737,0.37207 -0.15503,0.74414 -1.48827,1.83967 -1.32292,1.09554 -2.07739,1.09554 -0.85783,0 -0.60978,-1.24023 0.14469,-0.75447 0.40308,-1.53995 l 0.28938,-0.91984 1.92236,-6.19082 0.2067,-0.66145 q 0.97152,-3.20393 3.21427,-5.17796 2.25308,-1.97404 4.91958,-1.97404 1.29191,0 2.26342,0.45475 1.9637,-1.32291 3.67935,-1.32291 0.57877,0 0.97151,0.093 l -1.76732,1.49861 q -0.43409,-0.16536 -1.09554,-0.16536 -1.55029,0 -2.54247,1.09553 -0.99219,1.0852 -1.79834,3.68969 l -2.6975,8.66094 q -0.31006,1.00252 -0.40307,1.45727 -0.1757,0.9095 0.15502,0.9095 0.37207,0 1.01286,-0.62011 0.65112,-0.62012 1.02319,-1.35392 0.26872,0.14469 0.22738,0.37207 -0.15503,0.74414 -1.48828,1.83967 -1.32291,1.09554 -2.07739,1.09554 -0.84749,0 -0.59944,-1.2609 0.14469,-0.7338 0.39274,-1.51928 l 0.28938,-0.91984 2.25309,-7.19334 q 0.96118,-3.12124 3.03856,-5.19863 z"
         style="font-style:italic;font-family:'Apple Chancery';-inkscape-font-specification:'Apple Chancery'"
         id="path240" />
      <path
         d="m 242.49855,137.75495 q 0.21704,0.1757 0.1757,0.41341 -0.0723,0.3204 -0.88883,1.09554 -2.1704,2.04638 -3.89639,2.04638 -1.0542,0 -1.57096,-0.83715 -0.51676,-0.83716 -0.25838,-2.1394 0.47542,-2.35644 2.73884,-4.76455 2.26342,-2.41845 4.01008,-2.41845 1.2609,0 0.99218,1.35392 -0.29972,1.51928 -2.06705,2.96621 -1.75699,1.44694 -3.9894,2.01538 -0.28939,2.49079 1.4676,2.49079 1.73632,0 3.28661,-2.22208 z m -4.46483,-1.52961 q 0.27906,0.10335 0.5271,0.10335 1.28157,0 2.39778,-0.78548 1.12654,-0.78548 1.33325,-1.83968 0.23771,-1.20922 -0.99219,-1.20922 -0.88883,0 -1.819,1.06453 -0.93017,1.0542 -1.44694,2.6665 z"
         style="font-style:italic;font-family:'Apple Chancery';-inkscape-font-specification:'Apple Chancery'"
         id="path242" />
      <path
         d="m 247.89356,135.50187 q 3.16258,-4.35114 5.38466,-4.35114 0.57878,0 1.10588,0.26871 l -1.77767,1.59163 q -0.28939,-0.18603 -0.80615,-0.18603 -1.07486,0 -2.61482,1.74666 -1.53995,1.73632 -2.12906,3.61733 l -0.78548,2.52181 -1.63297,0.51676 0.093,-0.31006 0.2067,-0.67179 0.21704,-0.67179 1.52962,-4.91958 0.16537,-0.53743 q 0.19637,-0.60978 0.26871,-0.99219 0.12403,-0.63045 -0.22737,-0.63045 -0.82682,0 -1.99471,1.76733 -0.21704,-0.19637 -0.16536,-0.40308 0.15503,-0.63045 1.47794,-1.66397 1.33325,-1.04386 1.98437,-1.04386 0.87849,0 0.65112,1.15755 -0.0517,0.27905 -0.20671,0.75447 l -0.21704,0.72347 -0.25838,0.86816 z"
         style="font-style:italic;font-family:'Apple Chancery';-inkscape-font-specification:'Apple Chancery'"
         id="path244" />
      <path
         d="m 251.62458,140.75218 1.65364,-1.16789 q 0.64079,0.85783 1.86035,0.85783 1.48828,0 1.76733,-1.4366 0.16536,-0.79581 -0.91984,-2.22208 l -0.46509,-0.60978 q -1.02319,-1.35392 -0.84749,-2.19107 0.23771,-1.19889 1.4366,-2.01538 1.19889,-0.81648 2.71818,-0.81648 0.82682,0 1.74665,0.31005 l -1.4676,1.14722 q -0.66146,-0.58911 -1.62264,-0.58911 -1.12654,0 -1.32291,0.94051 -0.13436,0.67179 0.85783,1.97403 l 0.50642,0.68213 q 1.12655,1.48827 0.95085,2.39778 -0.26872,1.30224 -1.71566,2.30476 -1.44693,0.99218 -3.0799,0.99218 -1.15755,0 -2.05672,-0.5581 z"
         style="font-style:italic;font-family:'Apple Chancery';-inkscape-font-specification:'Apple Chancery'"
         id="path246" />
    </g>
  </g>
</svg>
